<?xml version="1.0" encoding="UTF-8" standalone="no"?>
<svg
   xmlns:dc="http://purl.org/dc/elements/1.1/"
   xmlns:cc="http://creativecommons.org/ns#"
   xmlns:rdf="http://www.w3.org/1999/02/22-rdf-syntax-ns#"
   xmlns:svg="http://www.w3.org/2000/svg"
   xmlns="http://www.w3.org/2000/svg"
   width="160"
   height="100"
   viewBox="0 0 160.00001 100"
   id="svg4208"
   version="1.1">
  <defs
     id="defs4210" />
  <metadata
     id="metadata4213">
    <rdf:RDF>
      <cc:Work
         rdf:about="">
        <dc:format>image/svg+xml</dc:format>
        <dc:type
           rdf:resource="http://purl.org/dc/dcmitype/StillImage" />
        <dc:title></dc:title>
      </cc:Work>
    </rdf:RDF>
  </metadata>
  <g
     transform="translate(-94.585178,-385.04822)"
     id="layer1">
    <g
       transform="matrix(0.14020328,0,0,0.13483844,102.38458,331.57194)"
       id="g4287">
      <path
         id="path4301"
         d="m 268.33572,1107.7061 c -13.9607,-2.7437 -21.68041,-13.2473 -23.64548,-32.1727 -0.80736,-7.7757 -0.71638,-8.6658 1.34635,-13.1714 2.4642,-5.3825 7.23187,-9.6636 14.31614,-12.855 3.63061,-1.6356 6.42169,-2.0764 13.48448,-2.1297 10.55897,-0.08 14.40105,1.5633 17.26174,7.3818 1.57991,3.2135 1.65688,4.1558 0.64766,7.9291 -0.62993,2.3553 -2.38599,6.2986 -3.90236,8.763 -4.64484,7.5489 -3.13208,11.0151 4.80723,11.0151 3.99072,0 5.12847,-0.4613 8.37802,-3.3971 4.38462,-3.9612 5.74046,-7.9056 7.94732,-23.1204 1.32911,-9.1633 1.32979,-11.5806 0.008,-25.7813 -1.94449,-20.8784 -7.20287,-65.51215 -11.72903,-99.5573 -2.02086,-15.20056 -3.3319,-27.97977 -2.91342,-28.39825 0.83975,-0.83975 1.91098,6.52516 8.0822,55.56689 8.87685,70.54296 10.16392,88.03616 7.56414,102.80846 -2.59604,14.7511 -4.76753,19.2085 -10.90334,22.3815 -4.32146,2.2347 -10.85501,1.7876 -13.57125,-0.9286 -3.10527,-3.1053 -2.90391,-5.3459 1.05709,-11.7633 8.63476,-13.9894 2.98503,-22.399 -14.35814,-21.3722 -15.70452,0.9299 -26.44754,10.1769 -26.46564,22.7804 -0.008,5.8985 2.17864,15.306 4.71365,20.275 2.92229,5.7282 9.23791,11.547 14.46657,13.3286 9.27471,3.1602 31.81397,0.9828 41.62206,-4.0209 5.55509,-2.834 10.2738,-7.292 14.29843,-13.5085 15.09337,-23.3132 16.42422,-66.9808 4.50425,-147.79296 -5.30076,-35.93684 -5.70203,-39.65829 -4.40808,-40.88014 0.64621,-0.6102 5.15977,-2.2399 10.03014,-3.62157 4.87037,-1.38168 15.13973,-5.04356 22.8208,-8.13754 7.68107,-3.09397 14.20794,-5.38305 14.50416,-5.08682 0.29622,0.29621 0.36279,0.69912 0.14795,0.89535 -1.15841,1.05801 -25.37502,10.24718 -34.91518,13.24882 -6.09788,1.91858 -11.28209,3.99658 -11.52046,4.61777 -0.23837,0.62119 1.88168,17.34145 4.71121,37.15615 7.24052,50.70393 7.58593,54.65857 7.56835,86.65174 -0.0143,25.8347 -0.19092,28.9247 -2.17017,37.9456 -5.21095,23.75 -14.59829,36.7245 -30.5189,42.1808 -3.03437,1.04 -9.99531,2.3155 -15.46875,2.8345 -11.19852,1.062 -12.07911,1.0588 -17.79697,-0.065 z m 275.89742,-101.5695 c -4.74591,-2.0666 -8.49655,-7.54074 -10.58093,-15.4432 -1.03483,-3.92332 -3.83345,-18.73487 -6.21917,-32.91456 -2.38572,-14.17969 -5.19331,-30.42188 -6.23909,-36.09375 -4.95735,-26.88667 -8.45804,-57.65625 -6.5596,-57.65625 0.58067,0 0.96637,0.73828 0.85711,1.64062 -0.55359,4.57205 3.50271,33.01125 10.93128,76.64063 9.22082,54.15558 9.92457,56.76309 16.53255,61.25541 8.21127,5.5823 22.81162,-2.5622 26.12861,-14.57534 1.7075,-6.18405 23.41177,-35.3779 37.14393,-49.96132 16.80521,-17.84698 26.07336,-29.72413 31.24029,-40.03445 6.62911,-13.22802 10.15074,-32.66634 8.99366,-49.64221 -0.42298,-6.20567 -0.3276,-9.69834 0.26485,-9.69834 0.52056,0 0.9974,3.35061 1.08927,7.6539 0.0898,4.20965 0.30311,7.90105 0.47389,8.20312 0.17076,0.30208 -0.0376,5.18986 -0.46311,10.86173 -1.85906,24.7822 -10.58466,41.67544 -35.03644,67.83248 -19.15271,20.48842 -39.05983,46.90248 -42.7189,56.68224 -3.23171,8.63753 -13.46324,16.66489 -21.07788,16.53709 -1.03125,-0.017 -3.1734,-0.5968 -4.76032,-1.2878 z m 10.90674,-50.97337 c -3.07513,-3.07513 -3.13254,-3.42168 -8.0307,-48.47814 -1.79374,-16.5 -3.49626,-31.6875 -3.78339,-33.75 -0.37479,-2.69219 -0.23553,-3.46379 0.49369,-2.73537 0.55866,0.55804 2.88206,17.75269 5.16311,38.2103 4.90506,43.9912 4.74447,43.01992 7.54841,45.65409 3.47452,3.26413 6.18551,1.92297 10.96731,-5.42564 2.26486,-3.48061 4.93404,-7.55053 5.93153,-9.04427 0.99749,-1.49374 3.29018,-4.94906 5.09487,-7.67848 1.80469,-2.72943 6.11008,-9.11286 9.56754,-14.18541 7.26064,-10.65232 14.90289,-26.15918 17.22514,-34.95147 3.48332,-13.18822 1.26221,-27.73738 -5.30824,-34.77107 -1.53428,-1.64244 -2.52411,-3.24477 -2.19962,-3.56073 1.11472,-1.08538 6.93533,6.73705 8.91828,11.98543 2.77079,7.33364 2.15269,21.84745 -1.3553,31.82445 -2.95389,8.40108 -10.10281,22.14298 -16.00767,30.77051 -6.88984,10.06665 -10.64982,15.55202 -12.74621,18.59516 -1.06561,1.54688 -4.04157,6.06915 -6.61322,10.04949 -6.9084,10.69267 -10.07054,12.28616 -14.86553,7.49115 z m 138.95634,-36.90304 c -9.7719,-1.97418 -17.19062,-5.23343 -24.88065,-10.93077 -12.73863,-9.4377 -14.61495,-19.93171 -7.77737,-43.4979 2.54204,-8.76133 10.58519,-26.99018 11.90892,-26.99018 1.06881,0 1.03105,2.56065 -0.0476,3.22729 -1.63575,1.01094 -9.61412,21.32036 -11.87177,30.22031 -4.2108,16.59944 -2.67347,25.30739 5.84175,33.08983 18.27892,16.7059 48.00635,19.14333 74.64146,6.12004 19.85303,-9.70719 35.42663,-28.61277 39.98815,-48.54368 2.69878,-11.79192 3.19039,-21.058 1.50321,-28.33299 -1.69157,-7.29409 -1.66858,-7.0308 -0.61387,-7.0308 3.12633,0 3.82576,21.29137 1.12873,34.35996 -4.58135,22.19922 -22.50177,43.28331 -44.88395,52.80778 -14.72555,6.26628 -31.17927,8.28051 -44.93698,5.50111 z M 812.25642,900.638 c -4.11215,-2.50735 -5.26193,-5.09234 -4.79099,-10.77129 0.35107,-4.23347 1.54112,-6.56405 9.62519,-18.84993 15.69494,-23.85261 18.49028,-29.35413 16.27265,-32.02621 -0.83253,-1.00315 -3.03838,-1.14176 -10.25716,-0.64457 -11.21192,0.7722 -12.61032,0.0875 -16.99268,-8.32061 -3.97535,-7.6272 -3.83572,-7.24655 -2.65809,-7.24655 0.56341,0 2.34459,2.67726 3.9582,5.94947 1.61359,3.2722 3.82449,6.54173 4.91312,7.26562 1.39881,0.93015 5.00377,1.31616 12.2918,1.31616 l 10.3125,0 0.27821,3.30152 c 0.35148,4.17125 -2.44069,9.47741 -15.89909,30.21412 -5.61783,8.65599 -10.46529,16.99336 -10.77212,18.52752 -0.83605,4.1802 1.28799,8.2542 5.39611,10.35001 4.92818,2.51416 8.86272,2.29625 18.42053,-1.02021 15.19871,-5.27381 25.89937,-5.39894 40.97091,-0.47909 17.63195,5.75566 25.57276,1.09861 32.51055,-19.06644 2.9805,-8.66275 1.67409,-17.32876 -2.98847,-19.82406 -2.6596,-1.42338 -10.28438,-0.47454 -14.84953,1.84788 -6.24947,3.17936 -16.54987,5.67513 -24.40916,5.91432 -6.70106,0.20394 -7.87665,-0.002 -9.03974,-1.58538 -3.67759,-5.00579 -0.78301,-10.29979 18.01363,-32.94571 5.59939,-6.74602 11.25683,-13.66466 12.57205,-15.37474 1.31531,-1.71007 2.8305,-2.94059 3.36722,-2.73448 0.53662,0.2061 -5.31366,7.96849 -13.00071,17.24974 -16.35199,19.74317 -20.41414,25.56717 -20.41414,29.26825 0,3.95096 1.58286,4.9505 7.83948,4.9505 6.11434,0 12.43373,-1.587 22.84227,-5.73641 7.05478,-2.81243 15.55303,-3.6114 18.96881,-1.78338 3.98429,2.13232 5.03785,13.90299 2.02754,22.65249 -3.66038,10.63902 -7.54435,16.60141 -12.49088,19.17512 -4.13756,2.15278 -14.60597,1.65156 -23.93868,-1.14617 -12.36913,-3.70797 -24.07105,-3.56583 -35.36936,0.4296 -10.13675,3.58468 -18.05208,3.98303 -22.70997,1.14291 z M 702.32959,890.10829 c -5.9924,-3.12755 -7.86032,-6.16021 -8.32913,-13.52281 -0.83047,-13.04219 5.92101,-27.2915 19.11803,-40.34952 11.52708,-11.40567 25.72709,-17.66931 34.54045,-15.23582 17.86012,4.93142 14.59253,32.08411 -6.47798,53.83008 -13.81728,14.26023 -29.20647,20.31193 -38.85137,15.27807 z m 15.66238,-1.56359 c 7.66598,-2.38592 14.85312,-7.3986 22.95231,-16.00809 10.26453,-10.91126 16.64439,-24.20278 16.64148,-34.67016 -0.002,-7.14302 -2.2096,-11.25674 -7.49855,-13.97298 -5.51283,-2.83121 -11.24202,-2.22115 -20.15625,2.14627 -19.04975,9.33321 -34.63707,31.44312 -34.50036,48.93723 0.10093,12.91633 8.47463,17.95201 22.56137,13.56773 z M 290.27899,877.99115 c -0.26254,-0.71833 -2.16487,-12.90762 -4.2274,-27.08731 -4.25957,-29.28413 -6.30578,-41.01105 -7.55815,-43.31591 -0.54297,-0.99928 -0.52557,-1.80869 0.0465,-2.16224 0.50286,-0.31079 1.3194,0.40793 1.8145,1.59716 1.72032,4.13218 11.87069,70.80558 10.92363,71.75264 -0.28694,0.28694 -0.73652,-0.066 -0.99907,-0.78434 z m 26.35986,-8.76523 c -0.83559,-2.17753 -12.80164,-65.59786 -12.80164,-67.84901 0,-1.11957 0.42188,-2.03557 0.9375,-2.03557 0.51563,0 0.9375,1.13092 0.9375,2.51317 0,2.45488 2.4083,15.70227 8.9505,49.23435 1.78035,9.12521 3.237,16.82443 3.237,17.10938 0,2.15008 13.48659,-2.39777 25.7012,-8.66677 23.9375,-12.28564 42.82148,-32.50443 56.61998,-60.62216 10.91135,-22.23446 12.7961,-29.83408 12.79689,-51.59922 4.3e-4,-11.84652 -0.33767,-15.24435 -2.14561,-21.5625 -4.56216,-15.94329 -13.36458,-25.49873 -27.99123,-30.38578 -19.61285,-6.55304 -54.37333,-0.42876 -78.91331,13.90337 -9.93087,5.79994 -9.80688,5.59485 -9.0727,15.00596 1.48923,19.08934 6.41168,57.36909 7.99577,62.17957 0.80293,2.43831 -0.15397,3.65227 -1.35153,1.71459 -1.30987,-2.11942 -6.80087,-44.30018 -8.51226,-65.38949 l -0.62155,-7.65928 4.54405,-3.31849 c 10.6164,-7.7531 30.62227,-15.81676 47.2003,-19.02479 11.09564,-2.14713 28.81101,-2.12129 36.04474,0.0526 18.03988,5.42128 28.51439,16.49076 32.98387,34.85735 1.9517,8.02026 2.18123,28.51656 0.44026,39.31443 -1.44182,8.9425 -5.39963,19.56553 -12.74882,34.21875 -16.61699,33.13187 -40.93542,55.58291 -72.47905,66.91347 -7.7431,2.78135 -10.98899,3.08409 -11.75186,1.09611 z m 76.26086,-2.69907 c 0,-0.2833 4.1006,-3.80891 9.11244,-7.83467 5.01183,-4.02578 13.76574,-11.96588 19.45312,-17.64467 13.09701,-13.07724 35.2237,-40.20149 41.06114,-50.33528 5.40587,-9.38455 11.20425,-23.92598 14.00948,-35.13358 4.25122,-16.9847 1.85439,-42.17136 -5.39685,-56.71183 -5.74767,-11.52544 -14.7511,-23.11837 -22.20241,-28.58815 -3.38404,-2.48411 -4.40088,-3.67234 -3.32069,-3.88036 2.29283,-0.44156 14.24104,11.32745 19.71934,19.42358 8.96827,13.25382 13.94678,28.07037 15.3055,45.5507 1.38805,17.85778 -6.87887,45.32448 -19.52613,64.87513 -10.84462,16.76406 -42.35694,51.44284 -57.65681,63.45035 -3.20652,2.51651 -5.60334,4.94229 -5.32626,5.39062 0.27709,0.44833 -0.11942,0.81515 -0.88112,0.81515 -0.76169,0 -2.05221,0.25607 -2.86782,0.56905 -0.81562,0.31298 -1.48293,0.33726 -1.48293,0.054 z m 184.95194,-34.94329 c -9.26219,-9.76213 -6.85368,-17.30567 7.31216,-22.90194 19.2038,-7.58653 45.72649,-0.15813 55.8304,15.63681 3.323,5.19467 3.63012,5.96041 2.39063,5.96041 -0.42067,0 -1.67965,-1.62764 -2.79772,-3.61698 -6.99764,-12.45062 -27.51299,-21.40339 -43.80677,-19.11699 -11.4407,1.60539 -22.94314,8.15759 -22.94314,13.06923 0,1.84328 9.16974,12.47724 10.75922,12.47724 0.65929,0 1.72389,0.63281 2.36578,1.40625 0.99955,1.20437 0.71321,1.3953 -1.99459,1.32998 -2.47209,-0.0596 -4.0241,-0.98525 -7.11597,-4.24401 z m 102.86056,-5.99222 c -1.20226,-0.77696 -1.16865,-0.91088 0.23168,-0.92315 0.90085,-0.007 3.22116,-1.40837 5.15625,-3.11216 13.35633,-11.75996 34.87057,-22.21469 45.71445,-22.21469 2.77033,0 5.2977,0.42187 5.61637,0.9375 0.36164,0.58515 -1.53144,0.9375 -5.03696,0.9375 -6.24849,0 -16.43399,3.31898 -25.93171,8.44996 -7.12975,3.85171 -18.2349,11.50886 -21.07362,14.53055 -2.44867,2.60648 -2.68978,2.67838 -4.67646,1.39449 z M 240.79034,815.57009 c -3.27597,-0.85609 -1.53837,-1.9244 2.40679,-1.47973 3.12579,0.35232 5.14673,-0.10085 8.87508,-1.99016 5.23635,-2.65345 5.8275,-2.82633 5.8275,-1.70416 0,0.40822 -2.32966,1.88478 -5.17701,3.28125 -4.86557,2.3863 -8.08795,2.89746 -11.93236,1.8928 z m 533.14414,-2.23192 c -1.51443,-1.58299 -4.1993,-3.77294 -5.96638,-4.86655 -1.76707,-1.09361 -2.72479,-2.15106 -2.12827,-2.34991 1.17131,-0.39043 9.55988,5.26084 9.55988,6.44038 0,0.39347 0.84987,0.98514 1.88861,1.31482 1.03875,0.32968 1.64666,0.99092 1.35092,1.46943 -0.87808,1.42076 -1.80134,1.02667 -4.70476,-2.00817 z m 29.09719,-1.57496 c 0.35479,-0.90234 1.24676,-4.80468 1.98217,-8.67187 2.12848,-11.19282 4.65185,-12.15208 20.76478,-7.89367 11.4551,3.02742 16.93515,2.68081 30.89052,-1.95375 11.60249,-3.85316 26.63907,-5.48401 30.67042,-3.32648 3.71381,1.98754 8.52581,13.13357 6.2715,14.52676 -0.43425,0.26843 -1.04672,-1.11968 -1.36097,-3.08469 -0.74588,-4.66454 -4.21632,-9.72975 -7.44394,-10.86488 -3.92709,-1.38107 -17.83522,0.73322 -27.45319,4.17338 -12.28774,4.39507 -21.21877,4.75094 -34.44079,1.37233 l -10.1438,-2.59204 -2.51245,1.86686 c -1.94405,1.4445 -2.77662,3.22463 -3.68008,7.86839 -1.82819,9.39686 -2.08353,10.22029 -3.16929,10.22029 -0.59212,0 -0.74936,-0.68818 -0.37488,-1.64063 z m -572.91934,-9.84375 c -0.5644,-2.1914 -1.97656,-7.35937 -3.13816,-11.48437 -2.78379,-9.88576 -3.06974,-25.53352 -0.61674,-33.75 6.42011,-21.50455 11.93549,-34.63773 19.48868,-46.40625 6.75809,-10.52969 21.57022,-27.35839 22.90512,-26.02348 0.31539,0.31538 -1.83696,3.02265 -4.78299,6.01612 -15.25232,15.49798 -25.22221,32.93777 -33.41141,58.44486 -3.90677,12.16847 -4.05989,13.08983 -3.97304,23.90625 0.0764,9.5153 0.49433,12.55103 2.71039,19.6875 1.44103,4.64062 2.81936,9.59766 3.06295,11.01562 0.70754,4.11865 -1.11608,2.97625 -2.2448,-1.40625 z m 23.19373,-3.14051 c -6.73877,-8.56694 -9.29039,-22.35113 -6.29542,-34.00853 2.07308,-8.06908 7.45489,-18.03525 13.03795,-24.14402 4.94103,-5.40627 7.6857,-6.29124 9.07384,-2.92569 1.0451,2.53385 9.40228,51.73334 9.40228,55.35206 0,1.40734 -0.5222,2.53733 -1.17187,2.5358 -0.78328,-0.002 -1.18482,-1.63394 -1.21089,-4.92188 -0.0215,-2.7055 -1.89238,-15.6146 -4.1576,-28.68687 -3.03369,-17.50685 -4.4896,-23.91014 -5.52695,-24.30821 -3.39398,-1.30239 -14.19902,15.03642 -17.49947,26.46176 -2.39301,8.28402 -1.53643,20.34436 1.93183,27.19925 1.43109,2.82848 3.37854,5.97624 4.32767,6.99502 0.94914,1.01878 1.34191,2.08953 0.87281,2.37945 -0.46908,0.28991 -1.72197,-0.57774 -2.78418,-1.92814 z m 282.38476,-32.32879 c 0.93355,-0.55852 5.36324,-1.36124 9.84375,-1.78383 14.90653,-1.40595 26.33344,-5.31611 38.67918,-13.23556 3.93498,-2.52419 7.42877,-4.58943 7.76398,-4.58943 3.71943,0 -11.98744,10.0033 -21.89052,13.94151 -7.36049,2.92708 -18.43234,5.23023 -29.53125,6.14306 -4.93893,0.4062 -6.14256,0.2885 -4.86514,-0.47575 z m -40.99686,-19.37445 c -3.49713,-5.35745 -4.91148,-13.86409 -3.58652,-21.57111 3.40252,-19.79174 12.50461,-40.17637 22.91868,-51.32766 6.24004,-6.68177 14.89379,-13.55173 21.0504,-16.71131 1.62693,-0.83495 3.54926,-2.10929 4.27186,-2.83189 0.72259,-0.72258 2.76647,-1.62559 4.54194,-2.00668 l 3.22814,-0.69288 -2.49162,1.98483 c -1.37039,1.09165 -2.88737,1.98483 -3.37106,1.98483 -2.33771,0 -21.17064,13.64235 -25.5091,18.47849 -9.05045,10.08866 -16.8527,25.98052 -21.23292,43.24782 -3.56363,14.04827 -2.51679,24.47681 3.03916,30.27598 2.0215,2.11 2.23662,2.68521 1.00424,2.68521 -0.86259,0 -2.60103,-1.58203 -3.8632,-3.51563 z m 40.76063,-9.77992 c -5.9924,-3.12755 -7.86032,-6.16021 -8.32913,-13.52281 -0.83047,-13.04219 5.92101,-27.2915 19.11803,-40.34952 15.92008,-15.75241 33.41152,-20.16592 42.04553,-10.60911 9.09602,10.06821 2.93682,31.74109 -13.98306,49.20337 -13.81728,14.26023 -29.20647,20.31193 -38.85137,15.27807 z m 15.66238,-1.56359 c 7.66598,-2.38592 14.85312,-7.3986 22.95231,-16.00809 10.26453,-10.91126 16.64439,-24.20278 16.64148,-34.67016 -0.002,-7.14302 -2.2096,-11.25674 -7.49855,-13.97298 -5.51283,-2.83121 -11.24202,-2.22115 -20.15625,2.14627 -19.04975,9.33321 -34.63707,31.44312 -34.50036,48.93723 0.10093,12.91633 8.47463,17.95201 22.56137,13.56773 z m 97.0761,1.69416 c -1.64334,-0.50631 -3.90065,-2.07554 -5.01623,-3.48717 -1.97671,-2.50127 -2.01199,-3.03195 -1.38562,-20.84785 0.83175,-23.65792 -1.16558,-53.29608 -4.75417,-70.54688 -0.29879,-1.43629 -0.12563,-2.57812 0.39097,-2.57812 1.92505,0 5.55177,31.35189 5.91041,51.09375 0.13114,7.21875 0.11038,19.3135 -0.0461,26.87722 -0.1565,7.56372 0.0239,14.2513 0.40088,14.86128 2.10992,3.41393 13.53377,4.79033 20.09231,2.42083 6.25953,-2.26148 6.71339,-3.8548 5.63565,-19.78433 -1.05455,-15.58661 -2.62072,-76.20009 -2.01664,-78.04688 0.21083,-0.64453 0.8052,-1.17187 1.32083,-1.17187 0.51562,0 0.67554,0.68264 0.35538,1.51698 -0.65047,1.69507 1.00582,64.21285 2.14561,80.9881 0.85217,12.54198 0.18032,14.79609 -5.1663,17.33323 -4.10426,1.9476 -13.62526,2.67856 -17.86695,1.37171 z m -45.29336,-2.64609 c 0,-0.44609 0.78799,-1.81718 1.75107,-3.04687 6.33164,-8.08434 11.58545,-24.09579 12.73084,-38.79831 1.02394,-13.14341 -3.50381,-26.26134 -11.58387,-33.56119 -3.59993,-3.25232 -10.61943,-7.30987 -14.61679,-8.44909 -1.03125,-0.2939 -3.77344,-1.05492 -6.09375,-1.69115 -4.18561,-1.14769 -4.19665,-1.16153 -1.40625,-1.76073 1.54688,-0.33217 3.23438,-0.31359 3.75,0.0413 0.51563,0.3549 2.625,1.17913 4.6875,1.83164 5.87021,1.85713 14.96819,8.28182 18.74964,13.24037 5.45618,7.15463 7.92814,15.43876 7.93702,26.59886 0.0111,13.85187 -2.5174,24.71244 -8.31872,35.73216 -2.61165,4.96088 -4.5184,9.392 -4.23724,9.84693 0.28116,0.45489 -0.35744,0.82711 -1.41912,0.82711 -1.06168,0 -1.93033,-0.36498 -1.93033,-0.81107 z m 124.88711,-28.95679 c -0.4761,-22.79769 -4.55576,-50.11304 -9.76605,-65.38839 -1.58288,-4.64063 -3.22438,-8.88133 -3.64777,-9.42379 -1.11293,-1.42587 0.0128,-4.87554 1.82222,-5.5838 3.8115,-1.49197 18.31588,-3.24236 26.99126,-3.25729 14.56574,-0.0251 13.02799,-4.2672 15.79669,43.57738 1.28306,22.17187 2.6864,42.31641 3.11853,44.76562 0.58058,3.29066 0.48974,4.45313 -0.348,4.45313 -1.33492,0 -1.69662,-3.79357 -3.70948,-38.90625 -2.19919,-38.36303 -3.08591,-49.41015 -4.04275,-50.36699 -1.28275,-1.28275 -7.48984,-2.55381 -12.59623,-2.57939 -6.86852,-0.0344 -22.55966,2.73383 -24.09931,4.25164 -1.20706,1.18993 -0.9546,2.64362 2.06664,11.90012 3.66966,11.2431 5.44712,20.35373 7.63582,39.13837 1.72292,14.78712 2.8881,40.31322 1.84003,40.31027 -0.43585,-9.4e-4 -0.91357,-5.80201 -1.0616,-12.89063 z M 286.02471,670.55359 c 0,-2.61478 20.86008,-13.37006 36.42398,-18.77989 17.64993,-6.13491 26.1104,-7.36647 47.01352,-6.84356 26.54216,0.66397 40.68556,3.68692 61.40625,13.12466 11.52364,5.24873 11.31279,5.13 10.51948,5.92331 -0.31584,0.31584 -4.75885,-1.38182 -9.87335,-3.77261 -19.23809,-8.99286 -33.5004,-12.3421 -58.05846,-13.63397 -16.51834,-0.86894 -24.79396,-0.22494 -37.74392,2.9372 -14.71765,3.59378 -33.58993,11.59286 -44.76562,18.97407 -2.85867,1.88807 -4.92188,2.75613 -4.92188,2.07079 z m 348.45896,-40.89975 c -0.28014,-0.77344 -1.41985,-6.00952 -2.53269,-11.63573 -2.11309,-10.68319 -5.80718,-22.15903 -10.40455,-32.32207 -1.49007,-3.29397 -2.70922,-7.02576 -2.70922,-8.29284 0,-4.04751 2.90565,-7.70132 7.01186,-8.81732 8.63085,-2.34573 29.60092,2.19996 34.98458,7.58363 4.88874,4.88875 5.61302,7.70007 6.29172,24.42183 0.34532,8.50781 0.94851,17.68359 1.34042,20.39063 0.55836,3.85669 0.43895,4.92187 -0.55176,4.92187 -0.85961,0 -1.27007,-1.27538 -1.28231,-3.98438 -0.01,-2.1914 -0.43824,-11.56478 -0.95188,-20.82973 -0.88094,-15.89038 -1.07332,-17.04657 -3.39359,-20.39471 -3.31797,-4.78783 -6.82408,-6.7664 -16.26154,-9.17673 -10.74335,-2.74384 -20.93119,-2.37991 -23.53924,0.84089 -2.61565,3.23019 -2.19069,6.89494 1.84615,15.92084 5.34928,11.96035 6.9818,17.47932 10.52272,35.57352 0.95146,4.86198 0.7022,8.76242 -0.37067,5.8003 z m 82.79104,-24.07067 c -3.99505,-2.08254 -5.63129,-3.62541 -7.26562,-6.85099 -5.91056,-11.66526 0.99931,-27.02884 15.23437,-33.87256 15.73935,-7.56692 35.18168,1.00088 35.14709,15.48854 -0.0312,13.07374 -15.28927,26.52961 -31.19098,27.50688 -6.07183,0.37317 -7.29941,0.13929 -11.92486,-2.27187 z m 23.15126,-2.22623 c 6.85545,-3.34305 13.37773,-9.37935 16.29555,-15.08138 4.71746,-9.21891 1.65475,-17.14468 -8.60657,-22.27233 -10.79873,-5.39618 -21.51973,-2.82843 -31.43482,7.52886 -10.99875,11.48928 -9.95904,24.54075 2.47623,31.08409 4.49554,2.36551 5.80451,2.63747 10.30585,2.14122 2.83594,-0.31265 7.76963,-1.84285 10.96376,-3.40046 z"
         style="fill:#8fb2f7" />
      <path
         id="path4299"
         d="m 264.5424,1105.2315 c -4.81079,-1.6991 -11.29681,-7.8118 -14.08209,-13.2714 -2.53502,-4.969 -4.72212,-14.3765 -4.71365,-20.275 0.0181,-12.6035 10.76112,-21.8505 26.46564,-22.7804 17.34317,-1.0268 22.9929,7.3828 14.35814,21.3722 -3.961,6.4174 -4.16236,8.658 -1.05709,11.7633 1.77548,1.7755 3.28522,2.3011 6.60906,2.3011 7.43568,0 13.47494,-4.7977 15.49839,-12.3122 2.20078,-8.1731 3.71391,-19.4931 3.71513,-27.7937 0.002,-13.1569 -8.05071,-84.80613 -14.61636,-130.05031 -1.27203,-8.76563 -3.58283,-25.21875 -5.13513,-36.5625 -5.94962,-43.47833 -10.38422,-70.09333 -12.00421,-72.0453 -0.6171,-0.74355 -1.11173,-4.36153 -1.12575,-8.23426 -0.0247,-6.82887 -7.65028,-55.56485 -9.33205,-59.64232 -1.38814,-3.36555 -4.13281,-2.48058 -9.07384,2.92569 -5.58306,6.10877 -10.96487,16.07494 -13.03795,24.14402 -3.04547,11.85391 -0.31424,26.04042 6.61517,34.36047 1.98681,2.38554 4.86413,9.35036 4.13296,10.00423 -1.58108,1.41393 -10.58936,5.20622 -12.36696,5.20622 -7.18121,0 -11.82403,-3.85094 -13.00056,-10.78318 -0.26236,-1.54582 -1.65604,-6.60745 -3.09707,-11.24807 -2.21606,-7.13648 -2.63399,-10.1722 -2.71039,-19.6875 -0.0868,-10.81642 0.0663,-11.73778 3.97304,-23.90625 8.30659,-25.87269 17.88956,-42.50953 34.03704,-59.09111 22.1506,-22.74608 55.13555,-39.15673 86.36226,-42.9669 8.92081,-1.08849 34.4208,0.12703 46.06332,2.19571 10.35987,1.84077 24.80145,6.62207 35.20567,11.65585 4.35554,2.10729 8.46172,3.83145 9.12485,3.83145 2.79836,0 17.5005,14.72165 22.93832,22.96875 10.32793,15.66352 14.16463,28.52934 14.25811,47.8125 0.0682,14.06344 -1.66289,22.54217 -7.81482,38.27679 -5.56873,14.24298 -11.26978,23.3464 -25.80062,41.19829 -14.84126,18.23328 -29.57131,33.37314 -42.83664,44.02841 -4.96665,3.98943 -9.17272,7.58599 -9.34681,7.99237 -0.26489,0.61829 -15.52994,10.08916 -22.61799,14.03284 -4.45768,2.48018 -30.76761,12.43368 -39.15585,14.81334 -4.87036,1.38167 -9.38392,3.01137 -10.03013,3.62157 -1.29396,1.22185 -0.89268,4.9433 4.40808,40.88014 11.91996,80.81216 10.58912,124.47976 -4.50425,147.79296 -4.02463,6.2165 -8.74334,10.6745 -14.29843,13.5085 -9.76246,4.9804 -32.93696,7.1672 -42.00654,3.9637 z m 63.84831,-237.10169 c 31.54363,-11.33056 55.86206,-33.7816 72.47905,-66.91347 11.39526,-22.7205 13.98172,-32.82064 13.92442,-54.375 -0.0807,-30.35263 -10.62245,-46.80995 -34.59973,-54.01552 -7.23373,-2.17386 -24.9491,-2.1997 -36.04474,-0.0526 -16.57803,3.20803 -36.5839,11.27169 -47.2003,19.02479 l -4.54405,3.31849 0.62155,7.65928 c 1.94398,23.95551 7.29811,63.78549 8.83015,65.68858 0.89803,1.11553 1.98547,7.83914 1.95823,12.10768 -0.0168,2.63428 11.83211,66.07016 12.82356,68.65385 0.76287,1.98799 4.00876,1.68524 11.75186,-1.09611 z m 214.56458,135.43569 c -6.60798,-4.49232 -7.31173,-7.09983 -16.53255,-61.25541 -7.0748,-41.55161 -6.60993,-38.44335 -10.30553,-68.90625 -0.28149,-2.32031 -0.72029,-4.93545 -0.9751,-5.81142 -0.25482,-0.87596 0.40202,-2.458 1.45965,-3.51563 2.58785,-2.58784 12.86585,-2.67254 18.3292,-0.15104 8.00654,3.69526 7.69576,2.64934 11.77173,39.61779 5.36444,48.65475 5.34338,48.52588 8.43719,51.61969 4.79499,4.79501 7.95713,3.20152 14.86553,-7.49115 2.57165,-3.98034 5.54761,-8.50262 6.61322,-10.04949 2.09639,-3.04314 5.85637,-8.52851 12.74621,-18.59516 5.90486,-8.62753 13.05378,-22.36943 16.00767,-30.77051 3.5856,-10.19772 4.13131,-24.47579 1.22921,-32.16145 -2.25977,-5.98458 -8.34203,-12.79194 -15.4691,-17.31326 -2.0891,-1.32529 -3.78846,-2.8315 -3.77637,-3.34712 0.0121,-0.51563 -1.07282,-1.46223 -2.41093,-2.10357 -2.95662,-1.41707 -11.10811,-10.76584 -11.10811,-12.73965 0,-4.88987 11.52737,-11.44511 22.94314,-13.047 16.29378,-2.2864 36.80913,6.66637 43.80677,19.11699 1.11807,1.98934 2.37705,3.61698 2.79772,3.61698 0.42068,0 0.76487,0.87148 0.76487,1.93663 0,1.06515 0.44801,2.77374 0.99556,3.79685 1.49641,2.79608 1.9866,22.60037 0.8084,32.66069 -2.99995,25.6157 -11.09193,39.94687 -39.72584,70.35583 -13.73216,14.58342 -35.43643,43.77727 -37.14393,49.96132 -3.31699,12.01314 -17.91734,20.15764 -26.12861,14.57534 z m 156.97567,-85.6996 c -1.03125,-0.24507 -4.82812,-1.11895 -8.4375,-1.94196 -14.39016,-3.28126 -28.2763,-13.22635 -30.92599,-22.14882 -2.00123,-6.73884 -1.76718,-13.1284 0.86028,-23.48618 2.25766,-8.89995 10.23603,-29.20937 11.87178,-30.22031 0.4676,-0.289 0.85018,-1.31587 0.85018,-2.28194 0,-0.96608 0.81047,-2.01373 1.80104,-2.32813 0.99057,-0.31439 2.67119,-2.24106 3.73473,-4.28149 4.35758,-8.36019 22.78869,-20.99977 39.73139,-27.24673 6.53308,-2.40883 8.5714,-2.714 18.12735,-2.714 13.0804,0 21.89245,1.84219 28.26546,5.90899 5.25928,3.3561 12.40253,9.59523 12.40253,10.83274 0,0.44502 1.01869,2.31024 2.26376,4.14494 1.24506,1.83471 2.0805,3.51907 1.85653,3.74304 -0.22397,0.22397 0.24915,3.23738 1.05137,6.69648 1.70671,7.35922 1.22532,16.57135 -1.48475,28.4126 -5.84122,25.52234 -27.4492,46.64189 -55.43794,54.18478 -8.27528,2.23018 -22.47637,3.68934 -26.53022,2.72599 z m 20.39275,-28.2262 c 6.87511,-2.69285 14.06022,-7.79454 20.85725,-14.80948 21.07051,-21.74597 24.3381,-48.89866 6.47798,-53.83008 -8.81336,-2.43349 -23.01337,3.83015 -34.54045,15.23582 -13.19702,13.05802 -19.9485,27.30733 -19.11803,40.34952 0.46881,7.3626 2.33673,10.39526 8.32913,13.52281 4.74199,2.47493 10.88756,2.31489 17.99412,-0.46859 z m 93.41177,10.01836 c -3.90511,-2.06385 -6.01077,-6.23861 -5.19752,-10.30481 0.30683,-1.53416 5.15429,-9.87153 10.77212,-18.52752 13.4584,-20.73671 16.25057,-26.04287 15.89909,-30.21412 l -0.27821,-3.30152 -10.3125,0 c -7.28803,0 -10.89299,-0.38601 -12.2918,-1.31616 -1.08863,-0.72389 -3.29953,-3.99342 -4.91312,-7.26562 -1.61361,-3.27221 -3.2764,-5.94947 -3.6951,-5.94947 -0.9135,0 4.8e-4,-6.97258 2.32293,-17.72125 1.37582,-6.36749 2.1837,-8.23517 4.21455,-9.74339 l 2.51245,-1.8659 10.1438,2.59204 c 13.22202,3.37861 22.15305,3.02274 34.44079,-1.37233 9.55858,-3.41892 23.53941,-5.55575 27.38635,-4.18575 3.32578,1.18435 5.96146,4.89159 7.41,10.42233 0.94856,3.62165 0.95221,4.90663 0.0178,6.4055 -0.64275,1.03125 -1.76044,2.88179 -2.48381,4.11231 -0.72329,1.23052 -2.15888,3.15194 -3.19013,4.26981 -4.36462,4.7313 -25.6346,31.16078 -29.29687,36.40353 -4.25285,6.08818 -5.05046,10.12363 -2.64743,13.39454 2.70257,3.67862 22.82879,1.0739 33.44889,-4.32894 4.56516,-2.32243 12.18994,-3.27126 14.84954,-1.84788 4.66256,2.4953 5.96896,11.16131 2.98846,19.82406 -6.93778,20.16505 -14.87859,24.8221 -32.51055,19.06644 -15.07154,-4.91985 -25.77219,-4.79472 -40.9709,0.47909 -9.41804,3.26796 -13.84217,3.49964 -18.61912,0.97501 z M 524.61846,763.80462 c -12.18604,-3.28392 -17.94691,-6.35345 -24.34401,-12.97105 -8.41882,-8.70899 -9.86286,-17.03216 -5.76069,-33.20342 4.38022,-17.2673 12.18247,-33.15916 21.23292,-43.24782 4.31478,-4.80974 23.16643,-18.47849 25.48514,-18.47849 0.47053,0 2.27692,-1.08417 4.01421,-2.40927 6.39121,-4.87481 31.28447,-7.13437 42.13389,-3.82449 11.59439,3.53715 20.00308,9.38321 24.477,17.01738 3.90179,6.6579 6.20016,17.57736 5.5247,26.24763 -0.90638,11.63464 -3.69393,22.10278 -8.12983,30.53018 -5.84048,11.09586 -6.51939,12.12913 -11.34202,17.26188 -2.41178,2.5669 -4.38506,4.99268 -4.38506,5.39063 0,0.39796 -0.4852,0.72356 -1.07823,0.72356 -0.59302,0 -4.29775,2.06524 -8.23273,4.58943 -12.22592,7.84259 -23.58678,11.76058 -38.50154,13.27789 -4.38281,0.44587 -8.8125,0.9933 -9.84375,1.21652 -1.03125,0.22321 -6.09375,-0.73103 -11.25,-2.12056 z m 28.83025,-26.97742 c 10.43881,-4.08867 24.18649,-16.1659 30.5647,-26.85086 9.59661,-16.07653 11.14743,-29.55569 4.27561,-37.16199 -8.63401,-9.55681 -26.12545,-5.1433 -42.04553,10.60911 -13.19702,13.05802 -19.9485,27.30733 -19.11803,40.34952 0.46881,7.3626 2.33673,10.39526 8.32913,13.52281 4.74199,2.47493 10.88756,2.31489 17.99412,-0.46859 z m 93.86042,-1.64873 c -1.61388,-0.70233 -3.24192,-1.77466 -3.61786,-2.38296 -0.37595,-0.60829 -0.55548,-7.29448 -0.39898,-14.8582 0.64124,-30.9894 -1.40468,-61.33556 -5.28838,-78.43972 -0.81955,-3.60938 -2.07409,-9.72656 -2.78788,-13.59375 -3.43628,-18.61737 -5.36398,-25.28079 -10.88441,-37.62382 -4.03684,-9.0259 -4.4618,-12.69065 -1.84615,-15.92084 2.60805,-3.2208 12.79589,-3.58473 23.53924,-0.84089 9.43955,2.41086 12.94351,4.38882 16.26468,9.18126 2.35623,3.40004 2.50479,4.36411 3.4317,22.26971 0.53288,10.2937 1.20575,21.66895 1.49527,25.27833 0.28952,3.60938 0.49422,7.19531 0.45486,7.96875 -0.63217,12.42632 1.09827,78.30705 2.32721,88.60052 0.45849,3.84023 0.21644,5.13161 -1.33044,7.09815 -3.37702,4.29319 -14.9348,6.05912 -21.35886,3.26346 z m 82.67751,-12.62204 c -0.3076,-0.49771 -0.77768,-7.99893 -1.04463,-16.66938 -0.81964,-26.62188 -4.20385,-50.18249 -9.56944,-66.62158 -3.02124,-9.2565 -3.2737,-10.71019 -2.06664,-11.90012 1.53965,-1.51781 17.23079,-4.28607 24.09931,-4.25164 5.11857,0.0257 11.31429,1.29745 12.60411,2.58726 0.96189,0.9619 1.68026,10.06101 4.52025,57.25496 1.03498,17.19895 2.11732,31.65195 2.40521,32.11776 0.28789,0.46581 0.27198,1.63917 -0.0353,2.60748 -0.44444,1.40031 -1.84764,1.88861 -6.85739,2.38636 -5.57888,0.5543 -9.60414,1.12469 -20.52238,2.9081 -1.63557,0.26716 -3.22544,0.0786 -3.53305,-0.4192 z M 719.15636,604.61618 c -12.43527,-6.54334 -13.47498,-19.59481 -2.47623,-31.08409 9.91509,-10.35729 20.63609,-12.92504 31.43482,-7.52886 10.26132,5.12765 13.32403,13.05342 8.60657,22.27233 -4.61794,9.02441 -16.87907,17.33747 -27.25931,18.48184 -4.50134,0.49625 -5.81031,0.22429 -10.30585,-2.14122 z"
         style="fill:#6192f5" />
      <path
         id="path4297"
         d="m 61.437325,954.54349 c -2.004966,-3.05996 -0.987394,-5.91025 2.714381,-7.60316 1.631718,-0.74622 19.630818,-5.38825 39.998004,-10.31562 20.36719,-4.92736 57.28125,-14.00033 82.03125,-20.16213 24.75,-6.16181 45.96647,-11.42219 47.14772,-11.68975 1.30365,-0.29528 1.88799,-0.90671 1.48683,-1.5558 -0.44276,-0.7164 -0.12069,-0.86204 0.97583,-0.44126 0.9002,0.34544 2.3405,0.65663 3.20068,0.69152 4.63963,0.18823 1.06087,1.11191 -110.72755,28.57873 -34.432189,8.46011 -63.46138,15.84089 -64.509308,16.40173 -1.313981,0.70322 -1.815141,1.77094 -1.614759,3.44021 0.531225,4.42537 2.483943,4.66327 14.545772,1.77212 37.571665,-9.00569 185.790515,-45.74951 187.503915,-46.48268 1.13939,-0.48756 4.30346,-1.11069 7.03125,-1.38474 l 4.95962,-0.49829 -6.5625,1.84057 c -19.04865,5.34251 -200.562495,49.7064 -203.372614,49.7064 -2.470996,0 -3.682134,-0.57877 -4.808521,-2.29785 z M 292.30746,900.62234 c 0.44171,-1.68905 -1.14669,-16.1768 -2.18096,-19.89261 -0.24194,-0.86921 -1.15835,-1.76949 -2.03647,-2.00063 -1.17938,-0.31044 -1.05984,-0.44868 0.45748,-0.52901 2.79314,-0.14788 3.05856,0.48976 4.55242,10.93659 1.66198,11.62258 1.6676,13.32966 0.0438,13.32966 -0.84953,0 -1.14697,-0.65586 -0.83627,-1.844 z m 76.41291,-17.97949 c 0.22962,-0.69865 1.86156,-1.39845 3.62654,-1.55515 1.76498,-0.15668 17.34186,-3.39902 34.6153,-7.20518 17.27344,-3.80618 39,-8.46298 48.28125,-10.34847 9.28125,-1.88549 19.19531,-4.12753 22.03125,-4.98232 4.46257,-1.34506 5.19606,-1.89992 5.45214,-4.12434 0.66811,-5.80362 -2.00263,-5.56614 -46.23339,4.11092 -31.5821,6.90973 -42.98026,9.22902 -43.38192,8.82736 -0.73397,-0.73397 4.01307,-1.81721 55.84939,-12.74431 14.59148,-3.07589 27.97628,-5.59252 29.74401,-5.59252 3.79058,0 6.62732,3.3289 5.59865,6.56997 -0.95065,2.99525 -4.72573,4.21129 -27.65388,8.90797 -20.24496,4.14704 -82.96621,17.83188 -86.59529,18.89379 -1.19666,0.35017 -1.61929,0.11012 -1.33405,-0.75772 z m -99.74644,-2.37943 c 0.67675,-0.27081 1.48536,-0.23751 1.79688,0.074 0.31152,0.31152 -0.24219,0.5331 -1.23047,0.4924 -1.09214,-0.045 -1.31428,-0.26713 -0.56641,-0.5664 z m 271.24786,-12.8409 c -2.21139,-1.84755 -5.59386,-3.83053 -7.51658,-4.40659 -3.54929,-1.06339 -12.91472,-0.77182 -16.75862,0.52174 -1.21393,0.40852 -2.10938,0.32846 -2.10938,-0.18859 0,-0.49415 1.63098,-1.3871 3.6244,-1.98434 7.74257,-2.31973 17.16178,-0.67102 22.67641,3.96924 1.48083,1.24603 3.19316,2.43243 3.80518,2.63644 0.61202,0.20401 0.92973,0.92 0.70603,1.59111 -0.27618,0.82856 -1.69727,0.14199 -4.42744,-2.13901 z M 45.552662,865.56163 c -2.380894,-3.6337 -0.567197,-6.6359 5.337019,-8.83434 14.742853,-5.4895 82.772789,-26.44845 85.848139,-26.44845 0.5878,0 1.5271,-0.73828 2.08734,-1.64063 0.94289,-1.51866 0.99862,-1.50701 0.74971,0.15669 -0.1479,0.98853 -1.3236,2.12106 -2.61266,2.51674 -1.28906,0.39568 -12.46875,3.67837 -24.84375,7.29487 -25.800486,7.53999 -59.694739,18.42919 -63.572726,20.42399 -2.028769,1.04359 -2.568141,1.91476 -2.34375,3.78551 0.606872,5.05932 1.724887,4.90458 30.43799,-4.21261 24.427456,-7.75639 65.266186,-19.88706 66.951146,-19.88706 0.36877,0 0.87139,0.52734 1.11693,1.17187 0.3035,0.79665 -0.63999,1.19547 -2.94657,1.24555 -3.88637,0.0844 -39.98629,10.6151 -69.114149,20.1613 -10.881,3.56608 -21.101747,6.48378 -22.712766,6.48378 -2.045306,0 -3.367481,-0.66901 -4.381903,-2.21721 z M 559.24982,846.73099 c -1.79993,-2.74705 -1.09573,-5.70808 1.71531,-7.21251 2.83963,-1.51972 27.21137,-4.51643 25.87669,-3.18175 -0.23809,0.23809 -5.58997,1.07135 -11.89307,1.85168 -13.02655,1.61272 -15.17404,2.42468 -15.17404,5.73726 0,4.13945 2.89792,4.58228 18.4387,2.81756 7.64777,-0.86842 15.09671,-1.96409 16.55318,-2.43481 1.96939,-0.63648 2.55013,-0.56185 2.26578,0.29119 -0.3974,1.19219 -22.08898,4.19936 -31.37667,4.34983 -4.21257,0.0683 -5.11156,-0.24308 -6.40588,-2.21845 z m -352.0947,-1.21778 c -1.16612,-1.48693 -1.13296,-1.52009 0.35397,-0.35396 1.56164,1.22472 2.05826,1.99459 1.28666,1.99459 -0.19467,0 -0.93295,-0.73828 -1.64063,-1.64063 z m 439.88521,-6.24676 c 0.62049,-0.61536 26.39384,-3.45315 26.88661,-2.96038 0.64086,0.64086 -2.71651,1.21927 -13.63895,2.34974 -10.30948,1.06701 -13.87348,1.23129 -13.24766,0.61064 z m -2.62791,-9.53384 c 0.79117,-0.82252 26.73086,-4.01593 33.25292,-4.09374 2.1914,-0.0262 3.98437,0.33485 3.98437,0.8022 0,0.46735 -0.77566,0.64689 -1.72369,0.39898 -1.52198,-0.398 -22.3065,1.58217 -32.49506,3.09586 -2.0625,0.30642 -3.42084,0.21493 -3.01854,-0.2033 z m -453.69063,-2.96644 c 0.34631,-0.56035 10.64599,-3.4285 22.88816,-6.37369 12.24219,-2.94518 22.79605,-5.78259 23.45305,-6.30535 1.37648,-1.09527 2.87551,-0.0965 1.55546,1.03638 -0.48125,0.41302 -11,3.2085 -23.375,6.21218 -12.375,3.00369 -23.09655,5.68356 -23.82566,5.95527 -0.79455,0.29609 -1.0734,0.0858 -0.69601,-0.52479 z m 592.4274,-1.70893 c 0.90326,-0.93832 19.43802,-3.01072 19.43802,-2.17339 0,0.33905 -2.42578,0.88527 -5.39062,1.21385 -2.96485,0.32856 -7.5,0.84675 -10.07813,1.15152 -2.57812,0.30477 -4.36429,0.21838 -3.96927,-0.19198 z m -599.48975,-7.64885 c -0.78272,-0.94312 -0.69594,-1.10873 0.3672,-0.70076 0.76568,0.29382 11.63779,-2.03379 24.16026,-5.17244 12.52246,-3.13867 23.2157,-5.55748 23.76275,-5.37512 0.54705,0.18235 -9.86384,3.06569 -23.13531,6.40743 -19.61689,4.93949 -24.32165,5.8449 -25.1549,4.84089 z m 595.02152,-1.89624 c 1.21617,-1.22755 23.13283,-3.25673 24.15329,-2.23627 0.42804,0.42804 -3.96375,1.06625 -9.7595,1.41825 -5.79576,0.35201 -11.61629,0.89298 -12.93451,1.20216 -1.6096,0.37751 -2.08887,0.25134 -1.45928,-0.38414 z m 110.74322,-0.97956 c -0.25369,-0.41044 1.72528,-0.80315 4.39781,-0.87269 2.67244,-0.0696 18.56991,-1.21454 35.32772,-2.54442 16.75781,-1.32989 45.75647,-3.45076 64.44141,-4.71304 18.68498,-1.26229 34.82168,-2.74945 35.85938,-3.30482 1.1139,-0.59618 1.8867,-1.96441 1.8867,-3.34061 0,-4.46975 -1.9934,-4.60385 -35.34983,-2.37795 -30.14025,2.01127 -66.993,4.83168 -86.52516,6.62191 -10.99678,1.0079 -16.47225,1.1876 -15.80325,0.51863 0.94125,-0.94126 96.04228,-8.30415 123.26774,-9.54361 l 13.2458,-0.60302 1.6984,2.59221 c 1.5292,2.33382 1.5612,2.83844 0.3201,5.06231 -1.8039,3.23237 -2.8813,3.38519 -40.69754,5.77288 -17.01562,1.07435 -46.24228,3.19651 -64.94812,4.71592 -38.42485,3.12111 -36.50288,3.01671 -37.12116,2.0163 z m -631.52447,-4.87875 c 0,-0.51563 0.81044,-0.9375 1.80098,-0.9375 0.99054,0 5.46426,-0.87003 9.9416,-1.9334 4.47735,-1.06337 8.35012,-1.7239 8.60616,-1.46786 0.48973,0.48972 -2.77114,1.45938 -12.84874,3.8207 -7.26829,1.70306 -7.5,1.71906 -7.5,0.51806 z m 500.625,-5.84451 c -2.83594,-1.01474 -8.63429,-2.07259 -12.88522,-2.3508 -4.25094,-0.27819 -8.13889,-0.99972 -8.63988,-1.60338 -1.39018,-1.67506 9.27369,-0.76796 18.24385,1.55189 4.125,1.0668 8.44922,1.98765 9.60938,2.04634 1.16015,0.0587 2.10937,0.63405 2.10937,1.27858 0,1.55111 -2.19474,1.31112 -8.4375,-0.92263 z m -502.07833,-3.45432 c 0.62884,-1.01748 16.15915,-4.78903 19.38189,-4.7069 1.57499,0.0401 -16.46589,5.12478 -19.62451,5.53097 -0.15934,0.0205 -0.0502,-0.35034 0.24262,-0.82407 z m 49.73458,-1.93995 c 1.03125,-0.43965 21.10934,-5.49154 44.61799,-11.22641 23.50865,-5.73487 43.2313,-10.91535 43.82812,-11.51217 1.84953,-1.84953 1.27153,-5.35291 -1.05826,-6.41444 -1.71939,-0.78341 -9.36972,0.79984 -38.67188,8.00322 -50.8989,12.5125 -51.43476,12.63853 -51.87342,12.19987 -0.21569,-0.21569 0.19556,-0.59734 0.91389,-0.84813 4.7029,-1.64189 85.99931,-21.15066 88.13848,-21.15066 1.82934,0 3.15545,0.76285 4.26208,2.45178 1.43366,2.18805 1.45934,2.7139 0.23867,4.88867 -1.74713,3.11273 -2.53379,3.34589 -50.76204,15.04543 -36.59368,8.87715 -44.25161,10.53165 -39.63363,8.56284 z M 10.922049,773.77345 c -1.8842901,-2.87579 -0.88395,-6.07197 2.438071,-7.78985 7.756549,-4.01107 73.521086,-26.09791 108.60209,-36.47372 11.60156,-3.43136 23.53358,-6.99597 26.51558,-7.92136 5.2884,-1.64111 5.38287,-1.63948 3.83907,0.0664 -0.87051,0.9619 -2.481,1.74891 -3.57886,1.74891 -4.75871,0 -75.732479,22.27266 -112.342941,35.25494 -24.191066,8.5783 -25.261475,9.1067 -24.88057,12.28223 0.573387,4.78023 2.606565,4.83385 15.059706,0.39719 33.433695,-11.91136 113.018835,-37.62183 116.456075,-37.62183 0.23957,0 0.19369,0.63039 -0.10197,1.40087 -0.29566,0.77047 -0.89846,1.17781 -1.33956,0.90519 -1.62117,-1.00193 -69.931062,20.6193 -107.128512,33.908 -9.19641,3.28539 -17.940591,5.97344 -19.431517,5.97344 -1.784583,0 -3.187709,-0.72789 -4.106662,-2.13039 z m 161.739181,-1.22898 c 0.045,-1.09214 0.26713,-1.31428 0.5664,-0.56641 0.27081,0.67675 0.23751,1.48535 -0.074,1.79688 -0.31153,0.31152 -0.5331,-0.2422 -0.49239,-1.23047 z m 359.41036,-4.96608 c -0.48985,-0.45399 -4.05469,-1.51577 -7.92188,-2.35948 -8.21253,-1.79176 -15.61842,-5.03728 -20.72686,-9.08324 -3.16474,-2.50653 -3.80969,-2.70421 -4.98575,-1.52815 -0.74293,0.74294 -3.5589,1.64371 -6.25769,2.00173 -7.62893,1.01201 -11.1547,2.80516 -11.1547,5.6731 0,3.91599 3.27136,4.78733 11.68675,3.11283 3.88479,-0.773 7.06325,-1.0884 7.06325,-0.70089 0,0.81462 -10.46539,2.77205 -14.8208,2.77205 -3.49451,0 -6.32259,-3.45229 -5.34675,-6.52688 0.63099,-1.98809 4.92691,-4.72312 7.4186,-4.72312 0.77366,0 3.53681,-0.45683 6.14031,-1.01518 3.68742,-0.79082 4.73364,-1.41243 4.73364,-2.8125 0,-2.57096 1.59201,-2.22455 4.87799,1.06144 3.98528,3.98527 12.72623,8.1892 20.71361,9.96213 6.32553,1.40406 11.9084,3.53574 11.9084,4.54693 0,0.76095 -2.39148,0.48734 -3.32812,-0.38077 z m 232.15214,-3.47142 c 0.045,-1.09214 0.26713,-1.31428 0.5664,-0.56641 0.27081,0.67675 0.23751,1.48535 -0.074,1.79688 -0.31152,0.31152 -0.5331,-0.2422 -0.49239,-1.23047 z M 592.58721,748.07391 c 0,-0.43528 9.59766,-2.23118 21.32813,-3.99087 11.73047,-1.75971 22.27734,-3.53603 23.4375,-3.94737 2.53912,-0.9003 2.72993,-3.57026 0.45585,-6.37862 l -1.65353,-2.04203 -15.40387,2.40691 c -15.66328,2.44745 -18.51955,2.76238 -17.70989,1.95273 0.54128,-0.54129 29.42932,-5.14739 32.36947,-5.16122 1.12333,-0.006 2.70536,0.65334 3.51563,1.46362 1.66105,1.66105 1.99553,7.46831 0.48396,8.40251 -0.54409,0.33627 -10.14174,2.05097 -21.32812,3.81045 -11.18638,1.75948 -21.49903,3.4412 -22.917,3.73717 -1.41797,0.29597 -2.57813,0.18199 -2.57813,-0.25328 z m 81.48826,-13.97828 c -1.03389,-1.24576 -1.0139,-1.89634 0.11959,-3.89328 2.92069,-5.14554 4.79694,-5.72542 28.08535,-8.68007 20.08001,-2.5476 28.27188,-3.27447 25.77555,-2.2871 -0.51562,0.20394 -11.27344,1.65824 -23.90625,3.23177 -23.23441,2.89406 -25.88375,3.60712 -28.43608,7.65338 -0.50865,0.80638 -0.63784,2.21402 -0.28708,3.12808 0.53161,1.38535 1.3755,1.56915 5.07108,1.10446 2.43833,-0.3066 14.55833,-1.8381 26.93333,-3.40333 12.375,-1.56523 22.60547,-2.84865 22.73438,-2.85203 0.1289,-0.004 0.23437,0.4157 0.23437,0.93133 0,0.51562 -1.38261,0.9375 -3.07248,0.9375 -1.68985,0 -12.89376,1.26562 -24.89757,2.8125 -25.24976,3.25382 -26.69104,3.32076 -28.35419,1.31679 z m 87.32117,-7.17617 c -0.0445,-1.93054 0.3889,-2.57812 1.72547,-2.57812 0.98169,0 12.68872,-1.04768 26.01562,-2.32819 69.14348,-6.64357 137.74164,-10.61001 219.57487,-12.69611 21.6174,-0.55108 38.601,-1.36981 39.6094,-1.90945 2.4576,-1.31528 2.2697,-5.23029 -0.3175,-6.61492 -4.8275,-2.58362 -132.89816,2.22054 -204.16729,7.65867 -23.73113,1.81078 -69.82902,5.89989 -78.75,6.98549 -2.67609,0.32565 -3.70453,0.20788 -2.8125,-0.3221 0.77344,-0.45952 4.57031,-1.12026 8.4375,-1.46832 3.86719,-0.34806 18.21094,-1.65199 31.875,-2.89764 71.61139,-6.5282 172.91785,-11.71993 228.69209,-11.71993 l 17.8272,0 1.6065,2.45178 c 1.4407,2.19888 1.4635,2.70657 0.2211,4.92187 -1.814,3.23488 -5.1789,3.71676 -26.6281,3.81341 -61.06438,0.27513 -160.63725,5.82012 -239.39303,13.33125 -20.20464,1.92697 -21.95328,2.23692 -22.67494,4.01922 -0.70126,1.73189 -0.7881,1.66512 -0.84139,-0.6469 z M 730.39971,724.447 c 0,-0.52701 1.3711,-1.18295 3.04688,-1.45766 18.68472,-3.06288 26.95312,-3.86552 26.95312,-2.61643 0,0.51563 -2.84765,1.21374 -6.32812,1.55137 -8.15832,0.79142 -19.92821,2.39735 -22.03125,3.00605 -0.90235,0.26117 -1.64063,0.0437 -1.64063,-0.48333 z m -540.40358,-3.19314 c 0.24414,-0.6222 12.13029,-4.21614 26.41367,-7.98654 14.28337,-3.77039 26.50867,-7.30252 27.16734,-7.84916 2.02224,-1.67832 1.43382,-5.38438 -1.03338,-6.5085 -1.82474,-0.83142 -5.87874,-0.0505 -22.26562,4.28873 -11.01907,2.91788 -20.77031,5.5213 -21.66941,5.7854 -1.18933,0.34934 -1.48185,0.0818 -1.07363,-0.98202 0.3086,-0.80418 0.90584,-1.24909 1.32721,-0.98867 0.42137,0.26042 9.36997,-1.85138 19.8858,-4.69289 21.4864,-5.80589 24.30471,-6.13446 26.4422,-3.08277 1.87114,2.67144 1.8377,3.82041 -0.18122,6.22612 -1.23522,1.47185 -7.77974,3.58683 -26.48438,8.55889 -13.66406,3.63217 -25.77272,6.99966 -26.90812,7.48332 -1.51045,0.6434 -1.94526,0.57581 -1.62046,-0.25191 z m 77.27858,-38.16252 c 0,-0.51563 0.44329,-0.9375 0.9851,-0.9375 1.44807,0 15.8899,-11.38508 15.8899,-12.52666 0,-0.54863 0.51134,-0.44707 1.17188,0.23278 0.94225,0.96979 0.74956,1.51169 -0.98344,2.76563 -1.18542,0.85772 -4.93047,3.77434 -8.32233,6.48137 -5.90323,4.71135 -8.74111,6.00491 -8.74111,3.98438 z M -6.8904514,680.02345 c -2.00448,-3.05923 -0.8309691,-6.1144 3.113714,-8.10639 8.9570447,-4.52313 72.5391904,-24.72775 110.7868774,-35.20496 38.89241,-10.65383 106.43397,-26.74576 112.2581,-26.74576 1.93417,0 3.38625,0.694 4.35957,2.0836 1.87099,2.67123 1.83766,3.81847 -0.18122,6.23479 -1.29542,1.55045 -6.47351,3.06147 -24.60938,7.1813 -66.91215,15.20008 -133.337586,33.79171 -184.036479,51.50945 -16.570399,5.79087 -19.6137649,6.21851 -21.6911824,3.04797 z M 28.906555,670.93143 C 78.074068,654.46605 137.44037,638.0736 193.68096,625.4333 c 27.1112,-6.09335 29.53125,-6.9387 29.53125,-10.31564 0,-4.1709 -3.14935,-4.7116 -13.72054,-2.35562 -67.58263,15.06203 -125.333836,30.71564 -178.466958,48.37392 -35.3499019,11.7482 -37.5,12.64426 -37.5,15.6283 0,2.42191 1.5777656,4.45208 3.4599684,4.45208 0.6654835,0 15.0303276,-4.62821 31.9218746,-10.28491 z M 442.82159,664.3948 c -3.51327,-3.33359 -2.10882,-6.94671 3.29655,-8.48075 9.89568,-2.8084 187.13597,-27.15582 188.40998,-25.8818 0.61646,0.61647 -2.80045,1.13283 -28.81591,4.35474 -58.10379,7.1959 -158.03323,21.67028 -161.15924,23.34328 -2.16459,1.15845 -2.62074,4.64359 -0.84076,6.42357 1.38288,1.38288 4.22628,1.42 11.00606,0.14372 6.21672,-1.17029 89.79987,-13.08122 91.7955,-13.08122 5.1273,0 -4.91123,1.6856 -44.92079,7.54275 -56.56765,8.28115 -56.03699,8.23027 -58.77139,5.63571 z m 135.78787,-17.32572 c 0.2185,-0.21848 12.41771,-1.90305 27.10938,-3.74348 14.69167,-1.84043 27.96457,-3.568 29.49533,-3.83907 1.64948,-0.29209 2.41325,-0.15386 1.875,0.33933 -0.49951,0.45769 -13.14258,2.36538 -28.09571,4.23931 -26.77441,3.35538 -31.17004,3.78996 -30.384,3.00391 z m 90.37539,-10.86668 c -0.1949,-0.31535 8.7622,-1.53602 19.90466,-2.71261 11.14246,-1.17659 20.8335,-2.35971 21.53565,-2.62915 2.91728,-1.11946 4.19626,-7.14785 1.71823,-8.09876 -0.75973,-0.29154 -10.93601,0.52612 -22.61395,1.817 -11.67794,1.29089 -21.43539,2.1443 -21.68322,1.89647 -0.67818,-0.67818 4.01465,-1.33943 24.40482,-3.43882 10.21353,-1.05159 19.38932,-1.65196 20.39062,-1.33416 4.12984,1.31076 1.02966,10.69243 -3.57007,10.80364 -0.90235,0.0218 -10.21127,0.99143 -20.68651,2.15471 -10.47523,1.16327 -19.20534,1.85703 -19.40023,1.54168 z m 90.64888,-11.6997 c -2.44468,-3.10791 -2.65859,-6.60088 -0.45601,-7.44609 1.78102,-0.68344 35.05376,-3.50694 66.37824,-5.63279 51.66222,-3.5061 118.52203,-6.13317 156.27497,-6.14038 23.83107,-0.005 24.10307,0.0176 25.54687,2.079 1.8869,2.69392 1.8391,3.8023 -0.2767,6.41517 l -1.7361,2.14398 -40.21698,0.70942 c -56.1899,0.99118 -103.05524,3.18163 -159.74831,7.4665 -13.66406,1.03273 -29.09078,2.13176 -34.28161,2.4423 l -9.43786,0.56461 -2.04651,-2.60172 z m 36.85973,-0.90836 c 58.97141,-4.53634 102.39666,-6.69076 163.10963,-8.09222 24.22593,-0.55922 44.79231,-1.41557 45.70311,-1.90301 2.2193,-1.18769 2.121,-5.19297 -0.1574,-6.41229 -6.28303,-3.36261 -137.15026,1.65445 -220.37409,8.4485 -24.70441,2.01676 -26.25,2.25885 -26.25,4.11152 0,2.17571 3.83341,6.15702 5.92742,6.15611 1.12273,-4.9e-4 15.54133,-1.03936 32.04133,-2.30861 z m -498.7533,-17.72021 c -1.93009,-2.94569 -0.5792,-6.52561 2.97131,-7.87413 1.46134,-0.55503 8.56324,-2.1161 15.78199,-3.46903 7.21875,-1.35294 30.98127,-5.81662 52.80561,-9.9193 133.23217,-25.04585 239.60657,-41.63631 332.97564,-51.93181 47.83119,-5.2742 102.57064,-9.95001 133.82909,-11.43161 12.1069,-0.57385 13.53616,-0.47415 15.23438,1.06271 2.39251,2.1652 2.39507,5.33075 0.006,7.49277 -1.57008,1.42091 -5.04605,1.8889 -21.79687,2.9346 -137.08601,8.55794 -274.22125,27.8654 -492.32476,69.31509 -17.47354,3.32086 -33.17866,6.03792 -34.89983,6.03792 -2.25588,0 -3.53492,-0.61889 -4.58218,-2.21721 z m 42.9416,-5.70844 c 213.44936,-40.58911 346.58367,-59.31757 486.66165,-68.46034 17.36282,-1.13326 21.80587,-1.70113 23.20312,-2.96563 2.15025,-1.94595 2.1874,-3.49273 0.13319,-5.54694 -1.82254,-1.82254 -4.65345,-1.73688 -49.96751,1.512 -93.82633,6.72709 -197.29731,20.07555 -323.90625,41.78613 -66.94734,11.47995 -173.58307,31.48477 -176.68833,33.14665 -3.59535,1.92417 -1.70175,7.38732 2.59538,7.48777 0.67074,0.0157 17.75668,-3.11617 37.96875,-6.95964 z M -20.952951,588.14845 c -1.834304,-2.7995 -0.905924,-6.06281 2.174948,-7.64505 8.392699,-4.31027 225.926083,-56.78706 235.400823,-56.78706 1.98091,0 3.26455,0.71484 4.40264,2.45178 1.44106,2.19934 1.46375,2.70611 0.22042,4.92187 -1.65426,2.9481 2.96857,1.69877 -58.03367,15.68377 -26.03906,5.96955 -76.690723,18.20029 -112.559239,27.17941 -35.868521,8.97912 -66.339264,16.32567 -67.712763,16.32567 -1.562548,0 -3.01975,-0.7974 -3.893159,-2.13039 z M 5.0159176,584.09626 C 50.639143,572.08034 150.69852,547.94492 198.83721,537.34442 c 18.6934,-4.11642 21.5625,-5.23728 21.5625,-8.42368 0,-3.64308 -3.00094,-4.72664 -9.29373,-3.35572 -64.8928,14.13731 -220.4001533,52.10041 -228.596893,55.80604 -3.229607,1.46005 -4.123447,4.64371 -1.921875,6.84528 1.728399,1.7284 3.102652,1.49662 24.4287056,-4.12008 z M 321.17766,511.18663 c -1.92716,-2.94122 -0.58396,-6.51396 2.97131,-7.90326 1.46134,-0.57105 6.45387,-1.71206 11.09449,-2.53557 4.64063,-0.8235 39.44531,-7.37193 77.34375,-14.55206 130.79858,-24.78069 175.52689,-31.85199 243.28125,-38.46142 24.71529,-2.41097 27.15827,-2.38966 29.00935,0.25312 1.87203,2.67272 1.83751,3.80423 -0.19256,6.31126 -1.49974,1.85211 -3.42173,2.20384 -20.85937,3.8173 -60.67938,5.61453 -119.67175,14.5856 -215.61367,32.78875 -21.39844,4.05995 -56.81749,10.78312 -78.70899,14.9404 -21.89151,4.15728 -41.3935,7.55869 -43.33776,7.55869 -2.68237,0 -3.88543,-0.53479 -4.9878,-2.21721 z m 24.3783,-2.04929 c 9.79688,-1.8275 40.80469,-7.71277 68.90625,-13.07837 124.25402,-23.72454 177.52504,-32.17638 242.14629,-38.4183 13.29765,-1.28445 25.00468,-2.77804 26.01562,-3.31908 1.06915,-0.57219 1.83809,-1.95881 1.83809,-3.31458 0,-3.95577 -3.11705,-4.6277 -15.38638,-3.31679 -5.89097,0.62941 -13.38194,1.32889 -16.64661,1.55438 -3.26467,0.22549 -10.57638,1.0211 -16.24826,1.76802 -5.67187,0.74692 -13.05469,1.60897 -16.40625,1.91567 -30.05775,2.75056 -100.93426,14.32766 -180.9375,29.55465 -21.39844,4.07277 -55.65944,10.56312 -76.13555,14.42304 -20.47612,3.8599 -38.0894,7.47832 -39.14063,8.04092 -3.69754,1.97886 -1.68489,7.4073 2.77618,7.4878 0.77344,0.014 9.42188,-1.46985 19.21875,-3.29736 z"
         style="fill:#a2a3a3" />
      <path
         id="path4295"
         d="m 267.27471,905.27715 c 0,-0.46797 1.58203,-1.09598 3.51563,-1.39559 6.83991,-1.05984 19.46137,-3.48009 20.05864,-3.84638 0.72241,-0.44304 -0.31151,-4.75891 -2.65175,-11.06915 -1.30208,-3.51095 -1.42748,-4.68977 -0.53189,-5 0.64453,-0.22326 1.17187,-1.0528 1.17187,-1.8434 0,-1.04681 -0.57326,-1.27137 -2.10937,-0.82625 -1.16016,0.33617 -5.90625,0.8522 -10.54688,1.14673 -17.23234,1.09371 -32.75333,-5.52221 -57.67785,-24.58554 -9.94581,-7.60698 -29.9784,-27.55368 -29.9784,-29.84987 0,-2.50823 1.34607,-1.66721 4.99971,3.12375 10.36085,13.58604 37.23852,34.62444 55.30476,43.2896 11.42571,5.48014 19.48517,6.9267 31.00312,5.56458 7.04615,-0.83327 9.43824,-0.83505 9.94977,-0.008 1.2195,1.97319 3.14312,20.65012 2.22175,21.57149 -1.86684,1.86695 -24.72911,5.31298 -24.72911,3.72753 z m -39.02132,-4.17649 c -25.36975,-6.55853 -45.2446,-17.4969 -62.2486,-34.25932 -12.00015,-11.82966 -24.66385,-29.0625 -21.35683,-29.0625 0.68376,0 3.45441,3.34324 6.157,7.42941 18.39787,27.81668 48.75935,47.7238 83.89163,55.00523 4.51172,0.93509 8.20312,2.03545 8.20312,2.44526 0,1.33003 -5.90399,0.70197 -14.64632,-1.55808 z m 311.9912,-35.67701 c -5.53704,-4.65911 -15.6755,-6.50073 -22.56533,-4.09892 -1.65014,0.57524 -3.18099,0.86518 -3.40187,0.64429 -0.22089,-0.22088 -2.9164,-17.25013 -5.99003,-37.84277 -7.9477,-53.24781 -8.8024,-59.49515 -8.21933,-60.07823 1.11199,-1.112 2.51918,0.85145 2.51918,3.51501 0,2.50657 8.47825,61.14635 11.57515,80.05956 1.1794,7.20276 1.26402,7.37248 2.13516,4.28252 1.19897,-4.25281 2.53294,-4.52168 5.03067,-1.01394 2.77854,3.9021 1.89741,5.95381 -2.34423,5.45863 -2.86898,-0.33494 -3.27175,-0.1259 -3.27175,1.69797 0,1.95108 0.21781,2.01979 3.51563,1.10908 5.04975,-1.3945 13.85724,-0.22153 18.71249,2.49212 l 4.12609,2.30612 -0.28648,-3.9475 c -0.21815,-3.00597 -0.64502,-3.88932 -1.78971,-3.70358 -2.25863,0.3665 -6.46552,-4.32839 -6.46552,-7.21551 0,-2.60922 1.49442,-4.74716 3.31826,-4.74716 1.3039,0 3.24424,4.0448 3.24424,6.76286 0,1.09293 0.24578,1.74136 0.54618,1.44097 0.61808,-0.6181 -2.27443,-31.50968 -5.77176,-61.64133 -2.79862,-24.11188 -2.74201,-24.00744 -12.44908,-22.96791 -5.68461,0.60877 -6.13332,0.50903 -8.46103,-1.88073 -2.20286,-2.26159 -8.80962,-6.87455 -13.40275,-9.35804 -1.58657,-0.85785 -2.43209,-3.29332 -1.14334,-3.29332 0.31252,0 2.16215,1.26242 4.1103,2.80538 5.05969,4.00735 12.50662,7.25597 20.69929,9.02979 3.9031,0.84506 7.79827,2.04959 8.65592,2.67672 1.1789,0.86203 2.01874,4.77763 3.44222,16.04855 1.52175,12.04907 8.46155,80.15979 8.46155,83.04591 0,1.39489 -1.69051,0.80284 -4.53012,-1.58654 z M 140.57766,830.74759 c -1.13153,-1.76511 -4.65518,-14.05838 -5.93856,-20.71838 -3.29869,-17.11825 -2.58924,-38.70318 1.84577,-56.15662 2.6477,-10.41978 6.20986,-19.41084 7.91562,-19.97943 0.90182,-0.3006 1.10868,0.0974 0.6956,1.33829 -0.32337,0.97137 -2.05609,5.98489 -3.85049,11.14114 -7.79254,22.39212 -8.39109,52.69535 -1.47799,74.82821 1.79933,5.76073 2.32051,11.90301 0.81005,9.54679 z m 38.79285,-16.17188 c -7.15667,-13.52255 -10.26731,-33.03717 -7.76197,-48.69476 2.34376,-14.64778 14.88678,-47.16461 18.19325,-47.16461 1.03602,0 0.0945,2.77028 -3.58457,10.54687 -9.57027,20.22914 -14.44825,40.06177 -13.28478,54.01263 0.78353,9.39528 4.19178,21.56268 8.17662,29.1905 1.75089,3.35156 3.32709,6.41016 3.50267,6.79687 0.17557,0.38672 -0.28996,0.70313 -1.03452,0.70313 -0.74458,0 -2.63759,-2.42578 -4.2067,-5.39063 z m 578.68545,-12.5757 c -3.09375,-1.02425 -8.90744,-2.10263 -12.9193,-2.3964 -4.01187,-0.29377 -7.48464,-0.84209 -7.71727,-1.21849 -0.23263,-0.3764 -1.92115,-16.03008 -3.75227,-34.78595 -1.83111,-18.75587 -3.51307,-34.62892 -3.73768,-35.27345 -0.22461,-0.64454 0.0251,-1.17188 0.55502,-1.17188 0.52988,0 0.72145,-0.3915 0.42572,-0.87 -0.29573,-0.47851 0.20671,-1.08563 1.11654,-1.34918 2.45538,-0.71125 14.78923,-2.32359 22.27924,-2.91245 10.95253,-0.8611 3.58576,1.28983 -9.76727,2.85182 -6.41338,0.75021 -11.80458,1.50791 -11.98044,1.68378 -0.17587,0.17586 0.95096,13.35457 2.50407,29.28601 1.5531,15.93145 3.07594,31.76721 3.38408,35.19058 l 0.56026,6.2243 6.2434,0.44038 c 3.43387,0.24221 6.64418,0.078 7.13403,-0.36493 1.9607,-1.77288 5.75763,-0.76685 8.46003,2.24157 2.4231,2.69751 2.78092,2.84055 3.12059,1.24744 0.45948,-2.15508 -1.18744,-31.47287 -3.18324,-56.6665 -1.28395,-16.20774 -1.25614,-21.93969 0.0999,-20.58369 0.89847,0.89848 4.94607,55.99967 5.25586,71.54962 0.19439,9.75724 0.31283,9.65645 -8.08125,6.87742 z M 151.02471,723.91044 c 0,-0.32294 9.40817,-12.90888 20.90704,-27.96876 31.57447,-41.35254 59.6365,-80.77609 72.20885,-101.44409 l 3.42167,-5.625 -4.13274,-19.6875 c -13.47351,-64.18487 -23.96732,-115.91446 -23.96732,-118.1477 0,-8.3446 6.6312,-17.26626 16.41263,-22.08164 5.47427,-2.69498 6.59464,-2.91175 13.29827,-2.57298 18.00666,0.90997 40.36472,17.60452 50.36211,37.60491 6.50628,13.01622 7.60221,18.19721 7.47828,35.35366 -0.0891,12.33614 -0.46218,15.87664 -2.46966,23.4375 -4.89912,18.45172 -9.72583,29.49471 -25.7811,58.98433 l -8.88962,16.32808 7.13864,35.70317 c 3.92625,19.63674 7.13848,35.95133 7.13829,36.25464 -5.1e-4,0.82048 -14.75479,12.10478 -15.82707,12.10478 -1.25388,0 -1.13833,0.46515 -8.00338,-32.21977 -3.343,-15.91619 -6.31979,-29.18013 -6.6151,-29.47545 -0.29531,-0.29531 -1.10989,0.0708 -1.81019,0.81352 -2.83102,3.00265 -41.66332,64.71882 -54.82396,87.1317 -0.45415,0.77344 -1.19036,1.05594 -1.63602,0.62779 -0.44919,-0.43155 0.37225,-2.8965 1.84329,-5.53125 9.69016,-17.35593 52.87794,-84.94066 55.20567,-86.39159 1.05102,-0.65513 1.92833,-0.6866 2.5128,-0.0901 0.49388,0.50403 3.71856,14.41643 7.16594,30.91643 3.44738,16.5 6.59701,30.35695 6.99919,30.79324 0.40216,0.43627 3.05008,-1.09551 5.88424,-3.40397 2.83417,-2.30846 5.58143,-4.35292 6.10501,-4.54323 0.57976,-0.21074 -1.75019,-13.72531 -5.95907,-34.56479 -3.80108,-18.82031 -6.92638,-35.4028 -6.94512,-36.84999 -0.0188,-1.44717 1.65343,-5.90878 3.71593,-9.91468 2.0625,-4.0059 3.75,-7.69691 3.75,-8.20225 0,-0.50535 1.07408,-2.37187 2.38682,-4.14782 4.05834,-5.49034 13.12021,-23.32303 17.60028,-34.63529 14.70579,-37.13235 12.56328,-67.34119 -6.39606,-90.18264 -10.46854,-12.61208 -30.14814,-24.19236 -41.11263,-24.19236 -10.07534,0 -23.23714,9.65112 -25.84,18.94763 -1.19309,4.26132 -0.28843,9.00984 22.015,115.55552 2.80313,13.3908 5.09659,25.23515 5.09659,26.32077 0,3.93499 -34.15432,53.78145 -60.87139,88.83865 -6.9973,9.18159 -15.42883,20.36128 -18.73673,24.84375 -11.99147,16.24934 -18.82938,23.9891 -18.82938,21.31278 z m 37.5,-14.78993 c 0,-0.71269 0.60442,-2.11472 1.34314,-3.11561 1.09179,-1.47927 1.57029,-1.59569 2.55705,-0.62213 0.90013,0.88809 0.95106,1.6151 0.19701,2.8125 -1.27395,2.02298 -4.0972,2.66054 -4.0972,0.92524 z m 21.85098,-39.60094 c 0.33004,-2.0504 1.46453,-4.79259 2.5211,-6.09375 1.05656,-1.30115 3.39317,-4.56855 5.19244,-7.2609 3.42962,-5.13187 7.93252,-8.73642 6.61096,-5.29201 -1.16981,3.04887 -11.79072,19.79366 -13.39042,21.11116 -1.38869,1.14372 -1.47726,0.91004 -0.93408,-2.4645 z m 49.97007,-106.92861 c -2.66473,-2.66473 -2.70611,-2.89629 -9.92882,-55.56376 -4.27085,-31.14281 -4.67604,-39.3853 -2.05278,-41.75931 2.42028,-2.19033 8.70091,-2.00918 11.68359,0.337 3.91307,3.07802 11.03767,13.1021 14.32702,20.15763 4.72466,10.13426 6.37465,20.0496 5.76399,34.63771 -1.14134,27.26542 -11.86333,50.12039 -19.793,42.19073 z m 8.32526,-4.89025 c 5.78251,-8.46549 10.37921,-30.57659 9.50129,-45.70312 -0.90174,-15.5366 -4.59576,-25.84781 -13.48921,-37.65279 -8.37357,-11.11489 -16.15839,-11.7113 -16.15839,-1.23792 0,2.51302 0.83663,10.26224 1.85917,17.22048 1.02255,6.95825 3.13653,22.27436 4.69774,34.0358 4.5777,34.48605 5.14646,36.85318 8.85484,36.85318 1.64417,0 3.04229,-1.03817 4.73456,-3.51563 z m -24.2088,-45.85937 c -0.96721,-0.96721 -0.73774,-14.375 0.24602,-14.375 1.26377,0 3.07644,9.66806 2.35305,12.55026 -0.61341,2.44405 -1.41617,3.00765 -2.59907,1.82474 z"
         style="fill:#fdc01c" />
      <path
         id="path4293"
         d="m 253.4122,904.45245 c -5.30408,-0.31892 -9.9447,-1.03316 -10.3125,-1.58719 -0.36781,-0.55403 -4.25468,-1.76518 -8.63749,-2.69145 -35.20607,-7.44045 -65.30336,-27.21537 -83.65725,-54.96556 -2.70259,-4.08617 -5.36149,-7.42941 -5.90869,-7.42941 -1.19852,0 -3.2418,-5.3323 -3.25865,-8.50406 -0.007,-1.25246 -0.88036,-5.01938 -1.94157,-8.37094 -3.22873,-10.19708 -4.6064,-20.43693 -4.60378,-34.21875 0.003,-16.05888 1.83041,-27.93567 6.2025,-40.3125 1.82143,-5.15625 3.38471,-10.50253 3.47394,-11.88062 0.18768,-2.89829 5.05881,-9.83964 7.33245,-10.44874 1.48939,-0.399 8.31775,-8.71167 18.77674,-22.8583 2.74481,-3.71258 10.71562,-14.25946 17.71292,-23.4375 26.66707,-34.97801 60.87139,-84.89381 60.87139,-88.83217 0,-1.08562 -2.29346,-12.92997 -5.09659,-26.32077 -22.30343,-106.54568 -23.20809,-111.2942 -22.015,-115.55552 2.60286,-9.29651 15.76466,-18.94763 25.84,-18.94763 10.96449,0 30.64409,11.58028 41.11263,24.19236 18.95934,22.84145 21.10185,53.05029 6.39606,90.18264 -4.48007,11.31226 -13.54194,29.14495 -17.60028,34.63526 -1.31274,1.77596 -2.38682,3.64247 -2.38682,4.14782 0,0.50534 -1.6875,4.19635 -3.75,8.20225 -2.0625,4.0059 -3.73467,8.46751 -3.71593,9.91469 0.0188,1.44718 3.14404,18.02967 6.94512,36.84998 4.20888,20.83948 6.53883,34.35405 5.95907,34.56479 -0.52358,0.19031 -3.27084,2.23478 -6.10501,4.54323 -2.83416,2.30846 -5.48208,3.84024 -5.88424,3.40397 -0.40218,-0.43629 -3.55181,-14.29324 -6.99919,-30.79324 -3.44738,-16.5 -6.63208,-30.37242 -7.07712,-30.82761 -1.65373,-1.69142 -3.89481,0.54044 -9.97763,9.93663 -29.55054,45.64696 -49.47426,78.2014 -49.59861,81.0418 -0.1275,2.91285 -4.39231,10.63043 -5.87446,10.63043 -3.14586,0 -15.7601,33.00548 -18.02567,47.16461 -1.68692,10.54273 -0.6671,25.3325 2.43655,35.33539 2.86077,9.22016 7.6334,18.75 9.39015,18.75 1.70239,0 5.58995,5.72511 5.25003,7.73157 -0.39615,2.33837 18.7115,21.66506 29.81784,30.15966 24.92452,19.06333 40.44551,25.67925 57.67785,24.58554 4.64063,-0.29453 9.38672,-0.81056 10.54688,-1.14673 1.56969,-0.45485 2.10937,-0.22346 2.10937,0.90437 0,0.83358 -0.42187,1.51559 -0.9375,1.51559 -1.43604,0 -1.08479,2.86615 0.8822,7.1985 0.97819,2.15449 1.91814,5.09574 2.08879,6.53612 0.29297,2.47296 0.023,2.68384 -4.84599,3.78484 -5.13073,1.1602 -14.7933,2.81896 -20.15625,3.46022 -1.54687,0.18496 -7.15219,0.0754 -12.45626,-0.24357 z M 192.62191,708.19527 c 0.75405,-1.1974 0.70312,-1.92441 -0.19701,-2.8125 -0.98676,-0.97356 -1.46526,-0.85714 -2.55705,0.62213 -0.73872,1.00089 -1.34314,2.40292 -1.34314,3.11561 0,1.73531 2.82325,1.09774 4.0972,-0.92524 z m 25.81448,-46.5237 c 3.07586,-4.97694 5.89457,-9.83634 6.2638,-10.79866 1.32156,-3.44441 -3.18134,0.16014 -6.61096,5.29201 -1.79927,2.69234 -4.13588,5.95975 -5.19244,7.2609 -1.05657,1.30116 -2.19106,4.04335 -2.5211,6.09375 -0.54318,3.37454 -0.45461,3.60822 0.93408,2.4645 0.84378,-0.69493 4.05076,-5.33555 7.12662,-10.3125 z m 49.96603,-100.22086 c 6.34994,-6.77603 10.97943,-22.96871 11.73634,-41.05048 0.61066,-14.58812 -1.03933,-24.50345 -5.76399,-34.63771 -3.28935,-7.05553 -10.41395,-17.07961 -14.32702,-20.15763 -2.98268,-2.34618 -9.26331,-2.52733 -11.68359,-0.337 -2.62326,2.37401 -2.21807,10.6165 2.05278,41.75931 7.22271,52.66747 7.26409,52.89903 9.92882,55.56376 2.17997,2.17997 5.36806,1.72877 8.05666,-1.14025 z M 247.06129,510.0166 c 0.72339,-2.8822 -1.08928,-12.55026 -2.35305,-12.55026 -0.98376,0 -1.21323,13.40779 -0.24602,14.375 1.1829,1.18291 1.98566,0.61931 2.59907,-1.82474 z m 290.68785,351.51243 c -4.62252,-2.60479 -12.5442,-3.68255 -17.9593,-2.4434 -3.84151,0.87906 -4.07763,0.81581 -4.07763,-1.09235 0,-1.76163 0.42613,-1.97569 3.27175,-1.64348 4.24164,0.49518 5.12277,-1.55653 2.34423,-5.45863 -2.49773,-3.50774 -3.8317,-3.23887 -5.03067,1.01394 -0.87114,3.08996 -0.95576,2.92024 -2.13516,-4.28252 -3.10218,-18.94542 -11.57515,-77.55513 -11.57515,-80.06829 0,-1.54401 -0.57989,-3.14466 -1.28865,-3.557 -1.65676,-0.96387 -2.5168,-7.78096 -0.98164,-7.78096 0.60676,0 1.66828,0.68087 2.35891,1.51304 0.69065,0.83216 3.37903,2.71482 5.97418,4.18369 2.59515,1.46885 5.27432,3.57013 5.95372,4.66949 1.13324,1.83376 1.75577,1.94657 7.53744,1.36595 10.03945,-1.00823 9.91245,-1.23742 12.72046,22.95533 3.49733,30.13165 6.38984,61.02323 5.77176,61.64133 -0.3004,0.30039 -0.54618,-0.34804 -0.54618,-1.44097 0,-2.71806 -1.94034,-6.76286 -3.24424,-6.76286 -1.82384,0 -3.31826,2.13794 -3.31826,4.74716 0,2.88973 4.36733,7.76381 6.29411,7.02443 1.59148,-0.61071 2.36756,1.28298 1.97507,4.81923 l -0.30043,2.7068 -3.74432,-2.10993 z m 223.09498,-61.95332 c -2.7024,-3.00841 -6.49933,-4.01444 -8.46003,-2.24156 -0.48985,0.44292 -3.70016,0.60714 -7.13403,0.36493 l -6.2434,-0.44038 -0.56026,-6.2243 c -0.30814,-3.42337 -1.83098,-19.25913 -3.38408,-35.19058 -1.55311,-15.93144 -2.67994,-29.11015 -2.50407,-29.28601 0.17586,-0.17587 5.58299,-0.93543 12.01584,-1.68792 6.43287,-0.75249 12.83619,-1.80163 14.22961,-2.33141 2.61101,-0.9927 3.31167,-0.2878 1.5074,1.51647 -0.74315,0.74315 -0.62199,6.15928 0.43934,19.64063 2.03398,25.8361 3.67342,54.97405 3.21427,57.12758 -0.33967,1.59311 -0.69749,1.45007 -3.12059,-1.24745 z"
         style="fill:#fdbe17" />
      <path
         id="path4291"
         d="m 63.087212,954.77884 c -1.725759,-1.72576 -1.337025,-5.25806 0.69855,-6.34747 1.002956,-0.53676 34.225612,-8.95219 73.828128,-18.70096 39.60252,-9.74877 78.75457,-19.51016 87.00457,-21.69199 14.01801,-3.70726 15.71089,-3.95247 25.85893,-3.74566 5.97242,0.12171 12.28973,0.51393 14.03847,0.87158 l 3.17951,0.65028 -2.78845,1.11235 c -1.53365,0.6118 -40.33533,10.37738 -86.22596,21.70129 C 55.998362,958.90128 65.141274,956.8329 63.087212,954.77884 Z m 28.690228,-5.90972 c 89.495,-21.80196 169.86924,-42.08978 169.2238,-42.71494 -0.41678,-0.40368 -4.76559,-0.84674 -9.66403,-0.98458 -8.7527,-0.24628 -10.06184,0.0353 -75.9375,16.33345 -36.86719,9.12123 -76.903329,19.01079 -88.969198,21.9768 -22.625156,5.56167 -25.346466,6.76288 -22.658522,10.00166 0.677766,0.81665 1.624847,1.48483 2.104622,1.48483 0.479775,0 12.13515,-2.74375 25.900828,-6.09722 z m 279.96248,-68.79593 c 0.28236,-0.45687 4.84242,-3.35893 10.13346,-6.44905 8.87769,-5.18481 10.57451,-5.80854 21.98794,-8.08248 6.80232,-1.35524 16.71638,-3.48077 22.03125,-4.7234 5.31486,-1.24263 19.30644,-4.23969 31.0924,-6.66014 17.45868,-3.58544 21.85596,-4.20628 23.73338,-3.35087 1.77198,0.80736 2.23602,1.64374 2.0085,3.62014 -0.25608,2.22442 -0.98957,2.77928 -5.45214,4.12434 -2.83594,0.85478 -12.75,3.09683 -22.03125,4.98232 -9.28125,1.88549 -31.05442,6.56503 -48.38482,10.39897 -31.15362,6.89201 -36.12004,7.76034 -35.11872,6.14017 z m 29.7313,-6.1263 c 12.5591,-2.79508 33.17068,-7.24258 45.80349,-9.88332 32.33793,-6.75989 32.98862,-6.92603 34.11396,-8.71005 0.77025,-1.2211 0.6473,-1.9652 -0.51708,-3.12959 -1.41178,-1.41178 -3.15181,-1.19439 -22.95286,2.86764 -11.7839,2.41737 -26.48777,5.57656 -32.67527,7.02043 -6.1875,1.44386 -12.9375,2.91648 -15,3.27247 -11.42002,1.97114 -20.19213,4.79936 -26.95312,8.68997 -3.9961,2.29955 -7.26563,4.35502 -7.26563,4.5677 0,0.83721 3.43734,0.20296 25.44651,-4.69525 z M 47.149712,865.71634 c -2.015578,-2.01558 -1.305637,-5.29644 1.453125,-6.71536 3.838041,-1.97404 37.918144,-12.91445 63.515623,-20.38983 12.375,-3.61394 23.7615,-6.98053 25.30333,-7.48129 2.29108,-0.74412 3.02659,-0.60526 4.02509,0.75987 1.37944,1.88593 2.51945,5.75999 1.88245,6.39699 -0.23131,0.23131 -10.51244,3.34859 -22.84697,6.92728 -12.33452,3.57869 -33.063282,9.90885 -46.063914,14.06702 -13.00064,4.15818 -24.201422,7.56032 -24.890625,7.56032 -0.689212,0 -1.759359,-0.50625 -2.378109,-1.125 z m 23.970216,-6.45084 c 11.20544,-3.6511 31.744282,-9.9945 45.641882,-14.09647 13.89758,-4.10197 25.46221,-7.652 25.69916,-7.88895 0.92139,-0.92139 -1.7959,-5.12624 -3.31271,-5.12624 -5.89717,0 -90.084839,26.87847 -91.571948,29.23603 -0.998887,1.58356 0.513909,4.51397 2.330278,4.51397 0.461897,0 10.007897,-2.98726 21.213338,-6.63834 z M 561.41534,847.07875 c -2.24093,-1.30522 -2.09269,-5.24201 0.2445,-6.49283 1.03681,-0.55489 7.34882,-1.66878 14.02668,-2.47533 12.00816,-1.45033 12.17686,-1.44463 15.35324,0.51848 3.68457,2.27719 5.8173,4.56742 5.00745,5.37727 -0.59514,0.59515 -26.71855,4.02878 -30.6475,4.02828 -1.28906,-1.6e-4 -3.08203,-0.4303 -3.98437,-0.95587 z m 16.07886,-1.37677 c 17.09349,-1.94657 17.42395,-2.02541 15.94715,-3.80483 -3.16345,-3.81174 -5.63074,-4.16225 -18.34782,-2.60662 -11.75552,1.438 -14.38132,2.26134 -14.38132,4.50935 0,1.32669 1.89877,3.35396 3.14137,3.35396 0.49024,0 6.62853,-0.65333 13.64062,-1.45186 z m 68.11492,-9.06924 c -0.80267,-1.14598 -1.45941,-3.00733 -1.45941,-4.13635 0,-2.3736 -0.17938,-2.33371 20.87252,-4.64103 7.6127,-0.83438 14.46827,-1.27643 15.23461,-0.98236 1.18363,0.4542 1.09631,1.10456 -0.58008,4.32079 -2.26984,4.35478 -1.96472,4.25226 -18.1833,6.10973 -15.25253,1.74683 -14.15862,1.79303 -15.88434,-0.67078 z m 18.22809,-0.8096 c 5.92969,-0.60673 11.47101,-1.45847 12.31404,-1.89275 1.39166,-0.71689 3.23629,-5.28872 2.45081,-6.0742 -0.68127,-0.68128 -31.98669,3.33199 -32.86833,4.21363 -0.60866,0.60866 -0.37533,1.76453 0.68193,3.3781 1.26354,1.92841 2.14523,2.34868 4.12373,1.96561 1.38412,-0.26798 7.36813,-0.98366 13.29782,-1.59039 z M 187.05976,823.25396 c -1.52508,-1.99949 -2.22833,-3.71426 -1.72618,-4.20901 0.76284,-0.75162 45.00734,-12.20361 47.14832,-12.20361 1.39926,0 5.12926,6.60885 4.20856,7.45677 -0.4521,0.41636 -10.73606,3.16728 -22.85325,6.11317 -12.11719,2.94588 -22.5201,5.54979 -23.11758,5.78646 -0.59747,0.23668 -2.24442,-1.08803 -3.65987,-2.94378 z m 26.71471,-4.0256 c 11.56705,-2.94567 21.19108,-5.85675 21.38671,-6.46905 0.19565,-0.61231 -0.4749,-1.9439 -1.4901,-2.9591 -1.83609,-1.83609 -1.96353,-1.81631 -24.18333,3.75365 -12.28564,3.07971 -22.51867,5.78061 -22.74007,6.00201 -0.2214,0.2214 0.0788,1.45902 0.66714,2.75025 0.69461,1.52449 1.8164,2.33549 3.19917,2.31286 1.17121,-0.0191 11.59342,-2.44494 23.16048,-5.39062 z m 566.34405,2.44699 c -3.51543,-5.76606 -3.0678,-6.00798 12.91234,-6.97855 l 10.49385,-0.63735 0,3.82777 c 0,4.41847 -0.14683,4.49842 -9.84375,5.36009 -3.60937,0.32073 -7.71014,0.79918 -9.11282,1.06322 -2.12537,0.40008 -2.86679,-0.039 -4.44962,-2.63518 z m 21.28895,-0.9595 c 1.64638,-1.36638 1.4737,-4.44555 -0.2872,-5.12128 -1.70759,-0.65526 -19.84376,0.99497 -20.73555,1.88676 -0.33115,0.33115 -0.095,1.71513 0.52489,3.07551 l 1.12696,2.47343 9.09558,-0.66765 c 5.00257,-0.36722 9.62646,-1.10826 10.27532,-1.64677 z m 89.07037,-7.03543 c -2.10282,-0.53072 -2.09728,-0.56421 0.82772,-4.98418 1.98646,-3.00172 3.03881,-3.73606 5.39062,-3.76148 1.60725,-0.0173 7.35197,-0.43756 12.76603,-0.93379 19.53216,-1.79023 56.38491,-4.61064 86.52516,-6.62191 33.35643,-2.2259 35.34983,-2.0918 35.34983,2.37795 0,1.3762 -0.7728,2.74443 -1.8867,3.34061 -1.0377,0.55537 -17.1744,2.04253 -35.85938,3.30482 -32.89003,2.22192 -91.50225,6.59866 -98.19141,7.33222 -1.80469,0.19791 -4.01953,0.17351 -4.92187,-0.0542 z m 48.98437,-4.44721 c 22.94531,-1.77251 52.26563,-3.91 65.15629,-4.74997 24.718,-1.61067 27.4938,-2.25712 25.1738,-5.86261 -0.8954,-1.39159 -2.3637,-1.58456 -10.2966,-1.35317 -11.6082,0.33859 -68.82305,4.32647 -97.31424,6.78282 -11.82469,1.01946 -22.70812,1.85356 -24.18534,1.85356 -2.52788,0 -7.28391,3.76225 -7.28391,5.76189 0,1.2267 3.90047,1.03208 48.75,-2.43252 z m -682.52073,-3.86093 c -0.607,-1.83924 -0.88555,-3.56216 -0.619,-3.82871 0.75439,-0.75438 17.72851,-4.97488 20.09286,-4.99594 1.86905,-0.0167 2.10937,0.44868 2.10937,4.08439 l 0,4.10318 -8.67187,1.99706 c -11.40603,2.62671 -11.60246,2.60602 -12.91136,-1.35998 z m 10.04069,0.98071 c 9.07772,-2.02676 10.60504,-2.82317 10.60504,-5.52997 0,-1.26969 -0.38352,-2.54556 -0.85228,-2.83526 -1.02137,-0.63125 -17.07657,3.03977 -18.25095,4.17307 -0.99626,0.96141 0.0401,5.61801 1.25042,5.61801 0.4738,0 3.7353,-0.64163 7.24777,-1.42585 z m 36.50516,-9.38369 c -0.32319,-0.84223 -0.58762,-2.74618 -0.58762,-4.231 0,-3.13845 -2.39004,-2.31798 27.1875,-9.33313 11.08594,-2.62935 29.37823,-7.12695 40.64955,-9.99468 16.74836,-4.26123 20.90284,-5.02745 22.73438,-4.19295 2.51383,1.14537 3.06049,4.83915 0.97263,6.57193 -0.69765,0.579 -19.99843,5.65336 -42.89063,11.27637 -51.42677,12.63194 -47.34177,11.79027 -48.06581,9.90346 z m 48.09342,-11.06123 c 43.46454,-10.92931 45.63178,-11.7182 42.0453,-15.30468 -1.48917,-1.48917 -2.60029,-1.32179 -18.26536,2.75163 -9.17385,2.38549 -27.43754,6.90504 -40.58598,10.04344 -33.20931,7.92672 -30.9375,7.2123 -30.9375,9.72902 0,2.77769 0.70652,3.41794 3.67188,3.32747 1.33203,-0.0407 21.16428,-4.78675 44.07166,-10.54688 z M 12.462212,773.84134 c -2.099929,-2.09993 -1.298185,-5.29979 1.718794,-6.85993 12.345474,-6.3841 129.967784,-44.20318 135.000984,-43.40686 1.72269,0.27256 1.58141,0.7035 -1.65239,5.04034 l -3.53614,4.74228 -21.5625,6.42208 c -24.352142,7.25291 -66.238939,20.99536 -89.904602,29.49639 -16.726703,6.00846 -18.270164,6.35968 -20.064146,4.5657 z m 22.957069,-6.73333 c 26.010797,-9.22607 63.757781,-21.5452 87.949179,-28.70313 17.40687,-5.15047 19.98324,-6.1667 22.24041,-8.77253 2.25244,-2.60038 3.36773,-5.29101 2.19318,-5.29101 -0.22559,0 -11.08888,3.18725 -24.14063,7.08278 -39.165739,11.6897 -107.096411,34.58617 -110.162864,37.13111 -2.314694,1.92102 -1.29268,5.04856 1.764478,5.39959 0.354513,0.0407 9.424826,-3.04035 20.156247,-6.84681 z m 447.246059,-1.59176 c -2.25683,-1.31448 -2.09099,-5.24292 0.27477,-6.50903 1.05347,-0.5638 4.94952,-1.60322 8.65791,-2.30982 7.65057,-1.45775 8.34919,-1.09114 7.95262,4.17321 -0.23881,3.17015 -0.37951,3.27591 -5.86968,4.41221 -6.87938,1.42383 -8.89838,1.4666 -11.01562,0.23343 z m 12.65625,-1.91153 c 2.88211,-0.7363 3.51562,-1.31929 3.51562,-3.23519 0,-3.22146 -1.93613,-3.6825 -9.11493,-2.17046 -6.76741,1.42538 -8.99581,3.36742 -6.84193,5.9627 1.33231,1.60532 4.53912,1.46174 12.44124,-0.55705 z m 98.2311,-17.46651 c 0.0154,-0.38671 1.62685,-2.55266 3.58103,-4.8132 l 3.55307,-4.11007 17.74033,-2.74237 17.74033,-2.74237 1.64738,2.03443 c 1.80552,2.22971 2.16364,5.14699 0.73986,6.02693 -0.88742,0.54846 -41.23922,7.04978 -43.75593,7.04978 -0.70073,0 -1.26146,-0.31641 -1.24607,-0.70313 z m 25.42952,-4.0071 c 9.94838,-1.55938 18.40141,-3.14868 18.78452,-3.53179 0.95855,-0.95855 -0.10938,-4.65546 -1.49885,-5.18865 -1.21469,-0.46613 -32.81838,4.3725 -35.35056,5.41228 -1.2672,0.52034 -3.64261,4.24964 -3.64261,5.71875 0,0.81953 3.77389,0.40044 21.7075,-2.41058 z m 56.4438,-8.88413 c -0.35046,-0.91327 -0.22103,-2.32026 0.28762,-3.12665 2.55886,-4.05662 5.18894,-4.76076 28.84959,-7.7238 22.3535,-2.79933 23.43627,-2.85433 24.60938,-1.24999 1.49726,2.04762 1.60275,5.66448 0.19067,6.5372 -0.8713,0.53848 -11.94423,2.05092 -48.39745,6.6105 -4.17105,0.52172 -4.99771,0.36545 -5.53981,-1.04726 z m 30.53176,-3.28767 c 12.08037,-1.52094 22.29702,-3.09805 22.70367,-3.5047 0.97443,-0.97443 -0.0256,-4.68558 -1.40098,-5.19915 -1.63928,-0.61208 -43.83836,4.79669 -46.75154,5.99228 -3.31215,1.35933 -4.83695,3.25964 -4.11827,5.13247 0.44581,1.16177 1.36837,1.36986 4.08925,0.92233 1.93246,-0.31785 13.3975,-1.82231 25.47787,-3.34323 z m 54.97445,-8.04145 c -1.04628,-4.16873 0.11688,-5.86077 4.43656,-6.45385 6.97317,-0.9574 52.88797,-5.06077 78.46843,-7.01267 71.26913,-5.43813 199.33979,-10.24229 204.16729,-7.65867 2.5872,1.38463 2.7751,5.29964 0.3175,6.61492 -1.0084,0.53964 -17.992,1.35837 -39.6094,1.90945 -81.83323,2.0861 -150.43139,6.05254 -219.57487,12.69611 -13.3269,1.28051 -24.9882,2.32819 -25.91399,2.32819 -1.02838,0 -1.9199,-0.94286 -2.29152,-2.42348 z m 16.03418,0.11227 c 67.20402,-7.09222 141.77931,-11.42509 247.7085,-14.39201 19.8799,-0.55681 22.9973,-0.84469 23.8518,-2.20257 0.7187,-1.14212 0.6302,-1.98716 -0.3294,-3.14339 -1.1956,-1.44064 -3.5682,-1.52681 -26.6644,-0.96835 -37.91416,0.91676 -99.40769,3.23035 -115.35194,4.33992 -7.73437,0.53825 -17.91722,1.1473 -22.62844,1.35344 -17.52116,0.76664 -74.31281,5.20125 -101.88787,7.95599 -10.28541,1.0275 -18.85581,1.86818 -19.04533,1.86818 -0.61415,0 -0.36419,5.29292 0.2804,5.9375 0.76077,0.76078 -1.25202,0.86791 14.06668,-0.74871 z m -585.62919,-3.4658 c 0,-0.59923 1.02685,-2.84169 2.28189,-4.98324 l 2.28187,-3.89374 22.22176,-5.88988 c 18.15097,-4.81091 22.62754,-5.70499 24.43687,-4.8806 2.43949,1.1115 3.03623,4.82592 1.0413,6.48156 -0.98627,0.81854 -49.62697,14.25541 -51.60374,14.25541 -0.36298,0 -0.65995,-0.49027 -0.65995,-1.08951 z m 27.00094,-6.90716 c 12.66676,-3.36692 23.58591,-6.58264 24.26477,-7.14604 1.61451,-1.33993 1.56641,-3.10207 -0.12294,-4.50411 -1.08133,-0.89742 -5.79814,0.041 -23.20312,4.61607 -18.96268,4.98458 -22.12368,6.07702 -23.95061,8.27723 -2.27489,2.73971 -2.74237,4.87852 -1.0663,4.87852 0.57626,0 11.41145,-2.75475 24.0782,-6.12167 z M -5.350288,680.09134 c -0.61875,-0.61875 -1.125,-2.11594 -1.125,-3.32708 0,-2.98404 2.1500981,-3.8801 37.5,-15.6283 53.133122,-17.65828 110.884328,-33.31189 178.466958,-48.37392 10.57119,-2.35598 13.72054,-1.81528 13.72054,2.35562 0,3.37694 -2.42005,4.22229 -29.53125,10.31564 -56.24059,12.6403 -115.606892,29.03275 -164.774405,45.49813 -16.891547,5.6567 -31.2563911,10.28491 -31.9218746,10.28491 -0.6654825,0 -1.7162184,-0.50625 -2.3349684,-1.125 z m 19.602226,-5.41925 c 51.48373,-17.87752 107.921882,-33.83532 172.647312,-48.81575 18.16744,-4.20478 33.55906,-8.07526 34.20359,-8.60107 1.56119,-1.27362 1.48124,-3.0526 -0.19992,-4.44783 -3.24043,-2.68932 -104.36526,22.56912 -163.026399,40.71988 -33.890516,10.48632 -61.5662921,20.28138 -62.7911368,22.22317 -0.9892997,1.56836 0.4819594,4.52835 2.2508128,4.52835 0.4231706,0 8.0352544,-2.52304 16.915741,-5.60675 z M 443.71221,664.15384 c -1.77998,-1.77998 -1.32383,-5.26512 0.84076,-6.42357 3.1145,-1.66683 102.38347,-16.05082 161.15924,-23.35184 12.63281,-1.56922 24.47222,-3.08708 26.30979,-3.37301 2.9306,-0.45603 3.47765,-0.22005 4.45312,1.92088 1.7229,3.78135 1.382,6.00918 -0.99728,6.51726 -2.19165,0.46801 -49.90961,6.58586 -63.04688,8.08315 -4.125,0.47014 -11.71875,1.49306 -16.875,2.27314 -5.15625,0.7801 -28.78125,4.14024 -52.5,7.46698 -23.71875,3.32675 -45.47071,6.4904 -48.33769,7.03033 -6.77922,1.2767 -9.62307,1.23967 -11.00606,-0.14332 z m 19.03125,-2.19223 c 5.15625,-0.71226 28.35938,-4.07563 51.5625,-7.47416 23.20313,-3.39853 47.03906,-6.77594 52.96875,-7.50535 37.03851,-4.55609 68.6545,-8.79526 69.12814,-9.2689 0.30329,-0.30329 0.0432,-1.66683 -0.57791,-3.03009 -1.11031,-2.43686 -1.24193,-2.4682 -7.8035,-1.85836 -18.31492,1.70219 -167.63242,22.29506 -179.42356,24.7449 -7.27317,1.51113 -6.343,7.53746 0.97534,6.31892 2.08738,-0.34757 8.01399,-1.2147 13.17024,-1.92696 z m 204.5222,-30.17605 c -0.31179,-1.92131 -0.26152,-3.79605 0.11171,-4.16608 0.94572,-0.93763 43.06969,-5.50854 44.76602,-4.8576 3.36491,1.29124 -0.0454,8.75534 -4.0093,8.77517 -0.90235,0.005 -9.19572,0.84827 -18.42972,1.875 -22.80811,2.53605 -21.75078,2.61269 -22.43871,-1.62649 z m 26.03841,0.10651 c 12.61001,-1.30341 16.22361,-1.9912 17.57812,-3.34571 3.01397,-3.01397 2.17639,-4.51752 -2.51656,-4.51752 -4.56879,0 -36.7474,3.49411 -38.66904,4.19887 -1.27377,0.46715 -1.60614,4.42234 -0.46875,5.57814 0.38672,0.39297 2.39062,0.4923 4.45312,0.22072 2.0625,-0.27159 10.8929,-1.2321 19.62311,-2.1345 z m 67.16369,-8.45841 c -2.37441,-3.01856 -2.47055,-4.73952 -0.30242,-5.41337 1.98189,-0.61597 39.60888,-3.72546 68.67187,-5.67504 69.76688,-4.68005 171.63649,-7.66049 176.31159,-5.15843 2.2784,1.21932 2.3767,5.2246 0.1574,6.41229 -0.9108,0.48744 -21.47718,1.34379 -45.70311,1.90301 -60.71297,1.40146 -104.13822,3.55588 -163.10963,8.09222 -16.5,1.26925 -30.9186,2.30812 -32.04133,2.30861 -1.12273,4.9e-4 -2.9157,-1.11069 -3.98437,-2.46929 z m 33.2132,-0.80847 c 62.07713,-4.85803 119.097,-7.46053 200.9941,-9.17376 8.07834,-0.16899 9.91864,-0.48128 10.76534,-1.82688 0.7884,-1.25297 0.6554,-1.98893 -0.5835,-3.22786 -1.5028,-1.50268 -4.6045,-1.53237 -48.73419,-0.46655 -45.13125,1.09001 -84.83246,2.75394 -116.0355,4.86321 -7.99219,0.54026 -20.64844,1.3914 -28.125,1.89143 -21.36882,1.42912 -49.05748,3.77028 -50.85937,4.30032 -2.14167,0.62998 -2.06925,1.41761 0.37119,4.03712 1.8365,1.97125 2.55134,2.10877 8.20313,1.57819 3.40521,-0.31969 14.20693,-1.20854 24.0038,-1.97522 z M 299.85284,606.14125 c -2.25161,-1.31144 -2.09155,-5.24262 0.26479,-6.50369 3.10526,-1.66188 109.74099,-21.6667 176.68833,-33.14665 126.60894,-21.71058 230.07992,-35.05904 323.90625,-41.78613 45.31406,-3.24888 48.14497,-3.33454 49.96751,-1.512 2.05421,2.05421 2.01706,3.60099 -0.13319,5.54694 -1.39725,1.2645 -5.8403,1.83237 -23.20312,2.96563 -140.07798,9.14277 -273.21229,27.87123 -486.66165,68.46034 -20.21207,3.84347 -37.29801,6.97533 -37.96875,6.95964 -0.67075,-0.0157 -1.95783,-0.45851 -2.86017,-0.98408 z m 39.79302,-6.91546 c 217.43791,-41.25128 352.17584,-60.13927 491.79439,-68.94132 8.90823,-0.5616 16.81839,-1.25963 17.57812,-1.55116 2.00854,-0.77075 1.73508,-4.77835 -0.37168,-5.447 -1.9924,-0.63237 -35.44739,1.40486 -69.49698,4.232 -70.18547,5.82749 -138.36136,14.13562 -225.9375,27.53345 -70.55898,10.79447 -249.8242,43.21974 -252.89062,45.74254 -0.64453,0.53027 -1.17188,1.46091 -1.17188,2.06808 0,1.23048 1.86727,3.35396 2.94927,3.35396 0.3846,0 17.2807,-3.14574 37.54688,-6.99055 z M -19.412788,588.21634 c -2.201572,-2.20157 -1.307732,-5.38523 1.921875,-6.84528 8.1967397,-3.70563 163.704093,-41.66873 228.596893,-55.80604 6.29279,-1.37092 9.29373,-0.28736 9.29373,3.35572 0,3.1864 -2.8691,4.30726 -21.5625,8.42368 -48.13869,10.6005 -148.198067,34.73592 -193.8212924,46.75184 -21.3260536,5.6167 -22.7003066,5.84848 -24.4287056,4.12008 z m 36.186087,-8.23962 c 41.412766,-10.72737 106.803781,-26.61716 152.532661,-37.06489 19.59375,-4.4766 38.53683,-8.83396 42.09574,-9.68301 7.2264,-1.72401 9.50256,-3.78472 6.97369,-6.31359 -1.75314,-1.75313 3.12113,-2.7014 -56.10068,10.91411 -73.177489,16.82402 -178.180327,43.05028 -180.685346,45.12926 -0.654309,0.54302 -1.189652,1.48411 -1.189652,2.09128 0,1.27997 1.883231,3.35396 3.045462,3.35396 0.437504,0 15.4351605,-3.79221 33.328125,-8.42712 z M 323.29034,511.45375 c -2.25469,-1.31323 -2.09122,-5.24279 0.27069,-6.50685 1.05123,-0.5626 18.66451,-4.18102 39.14063,-8.04092 20.47611,-3.85992 54.73711,-10.35027 76.13555,-14.42304 80.00324,-15.22699 150.87975,-26.80409 180.9375,-29.55465 3.35156,-0.3067 10.73438,-1.16875 16.40625,-1.91567 5.67188,-0.74692 12.98359,-1.54253 16.24826,-1.76802 3.26467,-0.22549 10.75564,-0.92497 16.64661,-1.55438 12.26933,-1.31091 15.38638,-0.63898 15.38638,3.31679 0,1.35577 -0.76894,2.74239 -1.83809,3.31458 -1.01094,0.54104 -12.71797,2.03463 -26.01562,3.31908 -64.62125,6.24192 -117.89227,14.69376 -242.14629,38.4183 -93.63276,17.87786 -88.41992,16.99764 -91.17187,15.39478 z m 15.76038,-2.21801 c 6.73463,-1.2514 41.11744,-7.77587 76.40625,-14.49883 127.42092,-24.27526 181.60935,-32.7604 249.31774,-39.03959 16.05448,-1.48887 18.75,-2.16728 18.75,-4.71904 0,-2.69089 -3.50193,-3.33268 -12.45109,-2.28188 -4.75347,0.55815 -13.67717,1.41927 -19.83047,1.9136 -6.1533,0.49433 -13.53612,1.31927 -16.40625,1.8332 -2.87014,0.51393 -10.03813,1.35215 -15.92889,1.86271 -5.89074,0.51057 -16.43762,1.76613 -23.4375,2.79013 -43.94968,6.42935 -61.55861,9.18368 -84.91455,13.28205 -23.17647,4.06688 -166.39701,30.92586 -180.83857,33.9137 -6.08672,1.2593 -8.29902,3.29282 -6.2579,5.75222 1.55226,1.87035 1.03012,1.89741 15.59123,-0.80827 z"
         style="fill:#626262" />
      <path
         id="path4289"
         d="m 63.77199,953.48151 c -2.687944,-3.23878 0.03337,-4.43999 22.658522,-10.00166 12.065869,-2.96601 52.102008,-12.85557 88.969198,-21.9768 65.87566,-16.29815 67.1848,-16.57973 75.9375,-16.33345 4.89844,0.13784 9.24725,0.5809 9.66403,0.98458 0.76196,0.73801 -191.412531,48.81216 -195.124628,48.81216 -0.479775,0 -1.426856,-0.66818 -2.104622,-1.48483 z m 312.25272,-74.83937 c 0,-0.21268 3.26953,-2.26815 7.26563,-4.5677 6.76099,-3.89061 15.5331,-6.71882 26.95312,-8.68997 2.0625,-0.35599 8.8125,-1.82861 15,-3.27247 6.1875,-1.44387 20.89137,-4.60306 32.67527,-7.02043 19.80105,-4.06203 21.54108,-4.27942 22.95286,-2.86764 1.16438,1.16439 1.28733,1.90849 0.51708,3.12959 -1.12534,1.78402 -1.77603,1.95016 -34.11396,8.71005 -12.63281,2.64074 -33.24439,7.08824 -45.80349,9.88332 -22.00917,4.89821 -25.44651,5.53246 -25.44651,4.69525 z M 47.83449,864.41901 c -2.464434,-2.96948 0.455775,-4.48796 22.656206,-11.7811 24.473691,-8.03995 66.183344,-20.48407 68.657564,-20.48407 1.51681,0 4.2341,4.20485 3.31271,5.12624 -0.23695,0.23695 -11.80158,3.78698 -25.69916,7.88895 -13.8976,4.10197 -34.436442,10.44537 -45.641882,14.09647 -11.205441,3.65108 -20.751441,6.63834 -21.213338,6.63834 -0.461887,0 -1.394334,-0.66818 -2.0721,-1.48483 z m 514.00272,-18.39017 c -1.44896,-1.44896 -1.43118,-3.08041 0.0469,-4.29937 0.64453,-0.53154 6.58878,-1.62906 13.20944,-2.43894 12.71708,-1.55563 15.18437,-1.20512 18.34782,2.60662 1.4768,1.77942 1.14634,1.85826 -15.94715,3.80483 -15.26628,1.73849 -14.26623,1.71761 -15.65699,0.32686 z m 84.57845,-10.58092 c -1.05726,-1.61357 -1.29059,-2.76944 -0.68193,-3.3781 0.88164,-0.88164 32.18706,-4.89491 32.86833,-4.21363 0.78548,0.78548 -1.05915,5.35731 -2.45081,6.0742 -0.84303,0.43428 -6.38435,1.28602 -12.31404,1.89275 -5.92969,0.60673 -11.9137,1.32241 -13.29782,1.59039 -1.9785,0.38307 -2.86019,-0.0372 -4.12373,-1.96561 z m -459.00084,-13.1418 c -0.58832,-1.29123 -0.88854,-2.52885 -0.66714,-2.75025 0.2214,-0.2214 10.45443,-2.9223 22.74007,-6.00201 22.2198,-5.56996 22.34724,-5.58974 24.18333,-3.75365 1.0152,1.0152 1.68575,2.34679 1.4901,2.9591 -0.35406,1.10815 -40.48936,11.79326 -44.54719,11.85967 -1.38277,0.0226 -2.50456,-0.78837 -3.19917,-2.31286 z m 593.49479,-1.74928 c -0.61984,-1.36038 -0.85604,-2.74436 -0.52489,-3.07551 0.89179,-0.89179 19.02796,-2.54202 20.73555,-1.88676 1.7609,0.67573 1.93358,3.7549 0.2872,5.12128 -0.64886,0.53851 -5.27275,1.27955 -10.27532,1.64677 l -9.09558,0.66765 -1.12696,-2.47343 z m 109.8026,-8.89111 c 0,-1.99964 4.75603,-5.76189 7.28391,-5.76189 1.47722,0 12.36065,-0.8341 24.18534,-1.85356 28.49119,-2.45635 85.70604,-6.44423 97.31424,-6.78282 7.9329,-0.23139 9.4012,-0.0384 10.2966,1.35317 2.32,3.60549 -0.4558,4.25194 -25.1738,5.86261 -12.89066,0.83997 -42.21098,2.97746 -65.15629,4.74997 -44.84953,3.4646 -48.75,3.65922 -48.75,2.43252 z m -632.44474,-6.29928 c -0.33301,-1.32681 -0.23559,-2.76934 0.21651,-3.20562 1.17438,-1.1333 17.22958,-4.80432 18.25095,-4.17307 0.46876,0.2897 0.85228,1.56557 0.85228,2.83526 0,2.7068 -1.52732,3.50321 -10.60504,5.52997 -8.18969,1.82849 -8.00287,1.84963 -8.7147,-0.98654 z m 46.19475,-9.46261 c -0.34376,-0.34375 -0.62501,-1.59312 -0.62501,-2.77636 0,-2.51672 -2.27181,-1.8023 30.9375,-9.72902 13.14844,-3.1384 31.41213,-7.65795 40.58598,-10.04344 15.66507,-4.07342 16.77619,-4.2408 18.26536,-2.75163 3.58648,3.58648 1.41924,4.37537 -42.0453,15.30468 -40.45618,10.17283 -45.80646,11.30785 -47.11853,9.99577 z M 13.446587,773.40795 c -1.534763,-0.61929 -1.503248,-3.56201 0.05197,-4.85272 3.066452,-2.54494 70.997124,-25.44141 110.162863,-37.13111 13.05175,-3.89553 23.91503,-7.08278 24.14062,-7.08278 1.17456,0 0.0592,2.69063 -2.19318,5.29101 -2.25717,2.60583 -4.83353,3.62206 -22.2404,8.77253 -24.191398,7.15793 -61.938382,19.47706 -87.949179,28.70313 -10.731421,3.80646 -19.801733,6.88752 -20.156247,6.84681 -0.354515,-0.0407 -1.171915,-0.2868 -1.816447,-0.54687 z m 469.433763,-9.24618 c -2.15388,-2.59528 0.0745,-4.53732 6.84193,-5.9627 7.1788,-1.51204 9.11493,-1.051 9.11493,2.17046 0,1.9159 -0.63351,2.49889 -3.51562,3.23519 -7.90212,2.01879 -11.10893,2.16237 -12.44124,0.55705 z M 597.27471,744.5417 c 0,-1.46911 2.37541,-5.19841 3.64261,-5.71875 2.53218,-1.03978 34.13587,-5.87841 35.35056,-5.41228 1.38947,0.53319 2.4574,4.2301 1.49885,5.18865 -0.68872,0.68872 -35.18671,6.36702 -38.68225,6.36702 -0.99537,0 -1.80977,-0.19109 -1.80977,-0.42464 z m 79.11594,-12.16149 c -0.71868,-1.87283 0.80612,-3.77314 4.11827,-5.13247 2.91318,-1.19559 45.11226,-6.60436 46.75154,-5.99228 1.37539,0.51357 2.37541,4.22472 1.40098,5.19915 -0.40665,0.40665 -10.6233,1.98376 -22.70367,3.5047 -12.08037,1.52092 -23.54541,3.02538 -25.47787,3.34323 -2.72088,0.44753 -3.64344,0.23944 -4.08925,-0.92233 z m 86.50907,-9.60137 c -0.64459,-0.64458 -0.89455,-5.9375 -0.2804,-5.9375 0.18952,0 8.75992,-0.84068 19.04533,-1.86818 27.57506,-2.75474 84.36671,-7.18935 101.88787,-7.95599 4.71122,-0.20614 14.89407,-0.81519 22.62844,-1.35344 15.94425,-1.10957 77.43778,-3.42316 115.35194,-4.33992 23.0962,-0.55846 25.4688,-0.47229 26.6644,0.96835 0.9596,1.15623 1.0481,2.00127 0.3294,3.14339 -0.8545,1.35788 -3.9719,1.64576 -23.8518,2.20257 -105.92919,2.96692 -180.50448,7.29979 -247.7085,14.39201 -15.3187,1.61662 -13.30591,1.50949 -14.06668,0.74871 z m -569.68285,-6.17188 c 0.003,-0.64453 0.95178,-2.31252 2.10938,-3.70664 1.82693,-2.20021 4.98793,-3.29265 23.95061,-8.27723 17.40498,-4.57512 22.12179,-5.51349 23.20312,-4.61607 1.68935,1.40204 1.73745,3.16418 0.12294,4.50411 -1.14715,0.95204 -46.02118,13.26771 -48.34297,13.26771 -0.57626,0 -1.04564,-0.52734 -1.04308,-1.17188 z M -4.6655071,678.79401 c -2.3620603,-2.84611 0.5285682,-4.52988 18.8413671,-10.97493 49.383843,-17.38027 118.62895,-36.66813 185.86769,-51.77247 15.572,-3.49806 19.76322,-4.1489 20.85937,-3.23917 1.68116,1.39523 1.76111,3.17421 0.19992,4.44783 -0.64453,0.52581 -16.03615,4.39629 -34.20359,8.60107 -64.72543,14.98043 -121.163582,30.93823 -172.647312,48.81575 -8.8804866,3.08371 -16.4925704,5.60675 -16.915741,5.60675 -0.4231706,0 -1.3239375,-0.66818 -2.0017041,-1.48483 z M 444.47133,662.94609 c -1.86984,-2.25304 -0.15538,-4.48679 4.12655,-5.37644 11.79114,-2.44984 161.10864,-23.04271 179.42356,-24.7449 6.56157,-0.60984 6.69319,-0.5785 7.8035,1.85836 0.62114,1.36326 0.8812,2.7268 0.57791,3.03009 -0.47364,0.47364 -32.08963,4.71281 -69.12814,9.2689 -5.92969,0.72941 -29.76562,4.10682 -52.96875,7.50535 -23.20312,3.39853 -46.40625,6.7619 -51.5625,7.47416 -5.15625,0.71226 -11.08286,1.57939 -13.17024,1.92695 -2.95218,0.49155 -4.0855,0.2822 -5.10189,-0.94247 z m 224.75651,-29.14024 c -1.13739,-1.1558 -0.80502,-5.11099 0.46875,-5.57814 1.92164,-0.70476 34.10025,-4.19887 38.66904,-4.19887 4.69295,0 5.53053,1.50355 2.51656,4.51752 -1.35451,1.35451 -4.96811,2.0423 -17.57812,3.34571 -8.73021,0.9024 -17.56061,1.86291 -19.62311,2.13449 -2.0625,0.27159 -4.0664,0.17226 -4.45312,-0.22071 z m 92.24619,-10.78363 c -2.44044,-2.61951 -2.51286,-3.40714 -0.37119,-4.03712 1.80189,-0.53004 29.49055,-2.8712 50.85937,-4.30032 7.47656,-0.50003 20.13281,-1.35117 28.125,-1.89143 31.20304,-2.10927 70.90425,-3.7732 116.0355,-4.86321 44.12969,-1.06582 47.23139,-1.03613 48.73419,0.46655 1.2389,1.23893 1.3719,1.97489 0.5835,3.22786 -0.8467,1.3456 -2.687,1.65789 -10.76534,1.82688 -89.50641,1.8724 -167.18562,5.72153 -224.9979,11.14898 -5.65179,0.53058 -6.36663,0.39306 -8.20313,-1.57819 z M 300.27471,605.09134 c -1.449,-1.449 -1.43119,-3.081 0.0469,-4.29704 2.39331,-1.96903 124.82383,-24.55171 217.26562,-40.0753 63.56893,-10.67503 151.26829,-22.53198 210.9375,-28.51877 51.61267,-5.17844 116.6786,-10.00681 120.12198,-8.91392 2.10676,0.66865 2.38022,4.67625 0.37168,5.447 -0.75973,0.29153 -8.66989,0.98956 -17.57812,1.55116 -139.61855,8.80205 -274.35648,27.69004 -491.79439,68.94132 -20.26618,3.84481 -37.16228,6.99055 -37.54688,6.99055 -0.3846,0 -1.20552,-0.50625 -1.82427,-1.125 z m -318.749998,-17.8125 c -1.454274,-1.45428 -1.429948,-3.07983 0.06465,-4.32024 2.505021,-2.07898 107.507859,-28.30524 180.685348,-45.12926 59.22181,-13.61551 54.34754,-12.66724 56.10068,-10.91411 2.52887,2.52887 0.25271,4.58958 -6.97369,6.31359 -3.55891,0.84905 -22.50199,5.20641 -42.09574,9.68301 -45.72888,10.44773 -111.119895,26.33752 -152.532661,37.06489 -17.8929645,4.63491 -32.890621,8.42712 -33.328125,8.42712 -0.437504,0 -1.301712,-0.50625 -1.920462,-1.125 z M 323.45949,510.04401 c -2.04112,-2.4594 0.17118,-4.49292 6.2579,-5.75222 14.44156,-2.98784 157.6621,-29.84682 180.83857,-33.9137 23.35594,-4.09837 40.96487,-6.8527 84.91455,-13.28205 6.99988,-1.024 17.54676,-2.27956 23.4375,-2.79013 5.89076,-0.51056 13.05875,-1.34878 15.92889,-1.86271 2.87013,-0.51393 10.25295,-1.33887 16.40625,-1.8332 6.1533,-0.49433 15.077,-1.35545 19.83047,-1.9136 8.94916,-1.0508 12.45109,-0.40901 12.45109,2.28188 0,2.55176 -2.69552,3.23017 -18.75,4.71904 -67.70839,6.27919 -121.89682,14.76433 -249.31774,39.03959 -74.8281,14.25569 -88.27239,16.77091 -89.7081,16.78301 -0.58139,0.005 -1.61161,-0.65926 -2.28938,-1.47591 z"
         style="color-rendering:optimizeQuality;image-rendering:optimizeQuality;shape-rendering:geometricPrecision" />
    </g>
  </g>
</svg>
